<?xml version="1.0" encoding="UTF-8" standalone="no"?>
<svg
   version="1.0"
   width="483.000000pt"
   height="517.000000pt"
   viewBox="0 0 483.000000 517.000000"
   preserveAspectRatio="xMidYMid meet"
   id="svg12"
   sodipodi:docname="Post-Note-Logo-removebg-preview.svg"
   inkscape:version="1.3 (0e150ed, 2023-07-21)"
   xmlns:inkscape="http://www.inkscape.org/namespaces/inkscape"
   xmlns:sodipodi="http://sodipodi.sourceforge.net/DTD/sodipodi-0.dtd"
   xmlns="http://www.w3.org/2000/svg"
   xmlns:svg="http://www.w3.org/2000/svg">
  <defs
     id="defs12" />
  <sodipodi:namedview
     id="namedview12"
     pagecolor="#ffffff"
     bordercolor="#000000"
     borderopacity="0.25"
     inkscape:showpageshadow="2"
     inkscape:pageopacity="0.0"
     inkscape:pagecheckerboard="0"
     inkscape:deskcolor="#d1d1d1"
     inkscape:document-units="pt"
     inkscape:zoom="0.80524432"
     inkscape:cx="378.76703"
     inkscape:cy="373.79959"
     inkscape:window-width="1728"
     inkscape:window-height="1051"
     inkscape:window-x="0"
     inkscape:window-y="38"
     inkscape:window-maximized="0"
     inkscape:current-layer="svg12" />
  <g
     transform="translate(0.000000,517.000000) scale(0.100000,-0.100000)"
     fill="#000000"
     stroke="none"
     id="g12"
     style="fill:#56825f;fill-opacity:1">
    <path
       d="M3500 4783 c-14 -2 -70 -10 -125 -19 -224 -34 -356 -57 -470 -82 -108 -23 -146 -26 -383 -30 -260 -4 -322 0 -497 33 -151 27 -552 58 -775 59 -191 1 -223 -2 -287 -20 -96 -28 -154 -64 -239 -146 l-72 -69 -5 -187 c-3 -143 -11 -219 -30 -322 -34 -178 -45 -265 -62 -510 -23 -341 -26 -504 -16 -985 8 -384 13 -482 30 -595 12 -74 33 -216 46 -314 41 -299 63 -365 245 -728 201 -401 242 -444 453 -469 142 -16 585 -7 707 16 166 31 391 91 535 145 243 90 225 88 727 95 505 8 532 11 694 91 211 103 288 228 391 634 l48 185 0 285 c-1 207 -5 329 -18 445 -10 88 -29 256 -43 374 -13 117 -33 335 -44 485 -21 273 -53 524 -104 821 -19 106 -84 311 -142 447 -46 108 -111 204 -183 271 -91 84 -127 97 -252 96 -57 -1 -115 -3 -129 -6z m220 -168 c27 -14 94 -87 138 -152 55 -79 151 -361 181 -533 21 -114 26 -147 56 -330 15 -96 27 -227 45 -515 6 -88 15 -191 20 -230 6 -38 19 -153 30 -255 11 -102 28 -250 37 -330 12 -104 17 -222 17 -415 l0 -270 -38 -145 c-52 -205 -72 -266 -120 -361 -39 -79 -46 -87 -118 -135 -45 -31 -110 -63 -160 -80 l-83 -28 -470 -6 c-510 -8 -483 -5 -660 -70 -243 -88 -346 -118 -576 -164 -119 -24 -145 -26 -420 -26 -162 0 -309 4 -328 10 -72 20 -112 79 -267 395 -118 242 -168 358 -184 429 -9 40 -65 416 -96 643 -22 162 -23 1197 -1 1458 19 227 37 364 68 515 16 80 22 148 24 288 2 101 5 185 7 186 134 104 225 118 598 92 296 -21 475 -41 615 -69 100 -20 139 -22 440 -21 268 0 343 3 400 16 134 31 231 49 435 79 113 17 207 33 209 35 12 11 175 3 201 -11z"
       id="path1"
       style="fill:#56825f;fill-opacity:1" />
    <path
       d="M1223 4258 c-51 -17 -84 -59 -91 -114 -8 -72 31 -549 50 -616 14 -48 39 -70 74 -66 46 5 56 37 50 165 -3 74 -1 115 6 119 6 4 44 10 85 14 66 7 78 11 109 41 61 59 90 177 63 260 -28 90 -79 158 -141 190 -41 21 -149 25 -205 7z m160 -143 c61 -62 77 -166 32 -210 -34 -35 -111 -36 -124 -2 -11 29 -24 214 -16 227 3 5 23 10 44 10 28 0 45 -7 64 -25z"
       id="path2"
       style="fill:#56825f;fill-opacity:1" />
    <path
       d="M3027 4112 c-13 -14 -17 -38 -17 -102 0 -75 -2 -85 -25 -106 -34 -31 -32 -50 10 -87 29 -26 35 -37 35 -72 0 -54 25 -135 51 -169 18 -23 28 -27 62 -24 34 2 44 8 58 33 14 26 15 41 6 111 -12 98 -8 114 33 114 46 0 84 42 76 83 -9 46 -30 61 -93 67 -62 5 -58 1 -83 97 -6 23 -17 49 -26 58 -21 21 -67 19 -87 -3z"
       id="path3"
       style="fill:#56825f;fill-opacity:1" />
    <path
       d="M2508 3984 c-47 -34 -73 -97 -63 -151 7 -37 44 -80 133 -156 55 -47 29 -85 -33 -47 -18 11 -41 20 -52 20 -25 0 -53 -30 -53 -58 0 -26 52 -87 91 -108 64 -33 178 -3 223 59 26 35 27 117 4 162 -9 17 -44 58 -77 90 -33 33 -61 65 -61 72 0 16 34 34 68 36 40 3 39 32 -1 72 -31 31 -41 35 -89 35 -42 0 -61 -6 -90 -26z"
       id="path4"
       style="fill:#56825f;fill-opacity:1" />
    <path
       d="M1940 3942 c-74 -9 -103 -30 -136 -99 -38 -77 -41 -196 -7 -258 50 -89 102 -125 181 -125 70 0 109 20 170 84 72 76 96 127 97 206 0 78 -20 109 -101 159 -56 35 -112 44 -204 33z m143 -159 c33 -17 36 -51 8 -97 -24 -38 -73 -76 -99 -76 -46 0 -74 78 -52 144 18 54 71 66 143 29z"
       id="path5"
       style="fill:#56825f;fill-opacity:1" />
    <path
       d="M1150 3010 c-11 -11 -20 -24 -20 -28 0 -5 -20 -130 -45 -278 -48 -284 -49 -311 -4 -334 32 -17 79 -11 103 13 19 19 26 45 40 143 9 65 19 134 22 152 10 67 40 38 119 -115 56 -110 90 -143 146 -143 68 0 91 41 109 193 5 42 14 103 19 135 31 182 24 242 -32 261 -24 9 -35 8 -54 -4 -31 -21 -38 -41 -52 -149 -7 -50 -15 -94 -17 -98 -12 -19 -35 -5 -53 31 -30 57 -138 197 -171 221 -36 26 -84 26 -110 0z"
       id="path6"
       style="fill:#56825f;fill-opacity:1" />
    <path
       d="M2503 3018 c-25 -12 -43 -56 -43 -106 0 -22 -9 -45 -25 -64 -37 -44 -33 -80 15 -120 39 -33 40 -34 55 -141 16 -116 23 -138 57 -161 34 -24 66 -19 100 15 34 33 33 12 11 210 l-6 57 37 12 c66 21 86 81 41 125 -16 17 -35 25 -58 25 -39 0 -49 10 -66 62 -14 42 -62 98 -83 97 -7 0 -23 -5 -35 -11z"
       id="path7"
       style="fill:#56825f;fill-opacity:1" />
    <path
       d="M2932 2958 c-19 -14 -45 -49 -65 -88 -30 -61 -32 -71 -32 -170 1 -120 12 -154 71 -220 55 -61 105 -84 172 -77 69 7 102 29 102 66 0 33 -13 46 -56 55 -38 8 -104 62 -104 85 0 13 17 21 72 34 125 29 186 88 175 171 -15 113 -240 209 -335 144z m158 -103 c29 -15 40 -48 20 -60 -5 -3 -32 -9 -60 -12 l-50 -6 0 31 c0 33 22 62 46 62 8 0 28 -7 44 -15z"
       id="path8"
       style="fill:#56825f;fill-opacity:1" />
    <path
       d="M3409 2951 c-24 -25 -29 -38 -29 -79 0 -44 6 -57 48 -112 100 -132 113 -154 110 -185 -3 -30 -3 -30 -60 -27 -51 3 -61 0 -84 -23 -20 -20 -24 -32 -19 -53 26 -104 197 -125 293 -37 37 34 37 34 37 117 -1 97 -21 142 -105 241 -53 62 -59 80 -36 106 19 21 11 33 -41 60 -56 28 -79 27 -114 -8z"
       id="path9"
       style="fill:#56825f;fill-opacity:1" />
    <path
       d="M2030 2920 c-8 -5 -37 -10 -64 -10 -43 0 -53 -4 -82 -35 -43 -46 -57 -111 -52 -250 4 -134 20 -174 87 -216 51 -33 119 -39 174 -15 47 20 106 83 136 146 22 47 26 69 26 145 0 82 -3 95 -31 145 -38 68 -83 100 -138 100 -23 0 -48 -5 -56 -10z m68 -149 c9 -11 12 -36 10 -78 -3 -51 -9 -69 -35 -100 -38 -48 -60 -53 -73 -18 -13 33 -13 166 0 199 8 22 13 24 47 19 21 -3 44 -13 51 -22z"
       id="path10"
       style="fill:#56825f;fill-opacity:1" />
    <path
       d="M2558 2081 c-51 -10 -113 -53 -174 -117 -32 -34 -59 -54 -73 -54 -14 0 -48 24 -89 64 -80 76 -98 86 -153 86 -62 0 -112 -28 -240 -135 -62 -52 -119 -95 -126 -95 -8 0 -36 36 -64 80 -29 45 -65 88 -83 100 -45 27 -115 36 -173 20 -108 -29 -253 -141 -253 -196 0 -60 82 -63 179 -5 73 43 143 66 166 54 8 -5 36 -44 62 -88 57 -95 96 -125 163 -125 57 0 97 24 235 143 55 48 109 87 120 87 12 0 44 -24 75 -56 64 -66 117 -93 182 -94 69 0 91 12 183 100 46 44 90 80 99 80 8 0 42 -35 75 -77 72 -93 108 -117 176 -117 42 0 64 8 130 47 44 26 109 57 145 68 90 29 236 36 331 16 181 -38 227 -32 301 43 40 39 48 53 48 84 0 41 -25 72 -66 82 -20 5 -37 -1 -72 -26 l-46 -33 -113 18 c-197 31 -392 -4 -592 -105 -39 -19 -67 -28 -76 -23 -8 5 -39 39 -70 76 -30 36 -66 74 -79 82 -30 20 -80 26 -128 16z"
       id="path11"
       style="fill:#56825f;fill-opacity:1" />
    <path
       d="M2534 1335 c-27 -13 -87 -59 -133 -101 -80 -73 -86 -76 -123 -71 -26 4 -60 22 -104 56 -119 92 -174 83 -303 -49 -136 -139 -166 -148 -197 -62 -32 90 -65 150 -91 167 -62 41 -155 7 -235 -87 -100 -117 -128 -187 -90 -221 37 -34 62 -22 153 75 97 104 107 106 128 21 30 -116 78 -163 170 -163 79 0 130 29 230 132 47 48 92 88 99 88 7 0 32 -18 56 -40 59 -55 118 -80 190 -80 81 0 130 26 209 110 73 78 98 86 121 41 22 -42 80 -89 128 -101 50 -14 148 6 238 47 136 62 206 74 295 53 38 -10 184 -25 342 -37 67 -5 73 -3 97 20 38 38 35 106 -6 128 -41 22 -330 51 -523 53 -90 1 -106 -2 -160 -28 -81 -38 -193 -76 -225 -76 -28 0 -47 17 -70 64 -44 87 -106 106 -196 61z"
       id="path12"
       style="fill:#56825f;fill-opacity:1" />
  </g>
</svg>
