<?xml version="1.0" encoding="UTF-8" standalone="no"?>
<svg
   version="1.0"
   width="483.000000pt"
   height="517.000000pt"
   viewBox="0 0 483.000000 517.000000"
   preserveAspectRatio="xMidYMid meet"
   id="svg12"
   sodipodi:docname="Post-Note-Logo copy.svg"
   inkscape:version="1.3 (0e150ed, 2023-07-21)"
   xmlns:inkscape="http://www.inkscape.org/namespaces/inkscape"
   xmlns:sodipodi="http://sodipodi.sourceforge.net/DTD/sodipodi-0.dtd"
   xmlns="http://www.w3.org/2000/svg"
   xmlns:svg="http://www.w3.org/2000/svg">
  <defs
     id="defs12" />
  <sodipodi:namedview
     id="namedview12"
     pagecolor="#ffffff"
     bordercolor="#000000"
     borderopacity="0.25"
     inkscape:showpageshadow="2"
     inkscape:pageopacity="0.0"
     inkscape:pagecheckerboard="0"
     inkscape:deskcolor="#d1d1d1"
     inkscape:document-units="pt"
     inkscape:zoom="1.4102658"
     inkscape:cx="355.96128"
     inkscape:cy="348.16133"
     inkscape:window-width="2560"
     inkscape:window-height="1387"
     inkscape:window-x="0"
     inkscape:window-y="25"
     inkscape:window-maximized="1"
     inkscape:current-layer="svg12" />
  <g
     transform="translate(0.000000,517.000000) scale(0.100000,-0.100000)"
     fill="#000000"
     stroke="none"
     id="g12"
     style="fill:#56825f;fill-opacity:1">
    <path
       d="M3500 4783 c-14 -2 -70 -10 -125 -19 -224 -34 -356 -57 -470 -82 -108 -23 -146 -26 -383 -30 -260 -4 -322 0 -497 33 -151 27 -552 58 -775 59 -191 1 -223 -2 -287 -20 -96 -28 -154 -64 -239 -146 l-72 -69 -5 -187 c-3 -143 -11 -219 -30 -322 -34 -178 -45 -265 -62 -510 -23 -341 -26 -504 -16 -985 8 -384 13 -482 30 -595 12 -74 33 -216 46 -314 41 -299 63 -365 245 -728 201 -401 242 -444 453 -469 142 -16 585 -7 707 16 166 31 391 91 535 145 243 90 225 88 727 95 505 8 532 11 694 91 211 103 288 228 391 634 l48 185 0 285 c-1 207 -5 329 -18 445 -10 88 -29 256 -43 374 -13 117 -33 335 -44 485 -21 273 -53 524 -104 821 -19 106 -84 311 -142 447 -46 108 -111 204 -183 271 -91 84 -127 97 -252 96 -57 -1 -115 -3 -129 -6z m220 -168 c27 -14 94 -87 138 -152 55 -79 151 -361 181 -533 21 -114 26 -147 56 -330 15 -96 27 -227 45 -515 6 -88 15 -191 20 -230 6 -38 19 -153 30 -255 11 -102 28 -250 37 -330 12 -104 17 -222 17 -415 l0 -270 -38 -145 c-52 -205 -72 -266 -120 -361 -39 -79 -46 -87 -118 -135 -45 -31 -110 -63 -160 -80 l-83 -28 -470 -6 c-510 -8 -483 -5 -660 -70 -243 -88 -346 -118 -576 -164 -119 -24 -145 -26 -420 -26 -162 0 -309 4 -328 10 -72 20 -112 79 -267 395 -118 242 -168 358 -184 429 -9 40 -65 416 -96 643 -22 162 -23 1197 -1 1458 19 227 37 364 68 515 16 80 22 148 24 288 2 101 5 185 7 186 134 104 225 118 598 92 296 -21 475 -41 615 -69 100 -20 139 -22 440 -21 268 0 343 3 400 16 134 31 231 49 435 79 113 17 207 33 209 35 12 11 175 3 201 -11z"
       id="path1"
       style="fill:#56825f;fill-opacity:1" />
    <path
       d="M1223 4258 c-51 -17 -84 -59 -91 -114 -8 -72 31 -549 50 -616 14 -48 39 -70 74 -66 46 5 56 37 50 165 -3 74 -1 115 6 119 6 4 44 10 85 14 66 7 78 11 109 41 61 59 90 177 63 260 -28 90 -79 158 -141 190 -41 21 -149 25 -205 7z m160 -143 c61 -62 77 -166 32 -210 -34 -35 -111 -36 -124 -2 -11 29 -24 214 -16 227 3 5 23 10 44 10 28 0 45 -7 64 -25z"
       id="path2"
       style="fill:#56825f;fill-opacity:1" />
    <path
       d="M3027 4112 c-13 -14 -17 -38 -17 -102 0 -75 -2 -85 -25 -106 -34 -31 -32 -50 10 -87 29 -26 35 -37 35 -72 0 -54 25 -135 51 -169 18 -23 28 -27 62 -24 34 2 44 8 58 33 14 26 15 41 6 111 -12 98 -8 114 33 114 46 0 84 42 76 83 -9 46 -30 61 -93 67 -62 5 -58 1 -83 97 -6 23 -17 49 -26 58 -21 21 -67 19 -87 -3z"
       id="path3"
       style="fill:#56825f;fill-opacity:1" />
    <path
       d="M2508 3984 c-47 -34 -73 -97 -63 -151 7 -37 44 -80 133 -156 55 -47 29 -85 -33 -47 -18 11 -41 20 -52 20 -25 0 -53 -30 -53 -58 0 -26 52 -87 91 -108 64 -33 178 -3 223 59 26 35 27 117 4 162 -9 17 -44 58 -77 90 -33 33 -61 65 -61 72 0 16 34 34 68 36 40 3 39 32 -1 72 -31 31 -41 35 -89 35 -42 0 -61 -6 -90 -26z"
       id="path4"
       style="fill:#56825f;fill-opacity:1" />
    <path
       d="M1940 3942 c-74 -9 -103 -30 -136 -99 -38 -77 -41 -196 -7 -258 50 -89 102 -125 181 -125 70 0 109 20 170 84 72 76 96 127 97 206 0 78 -20 109 -101 159 -56 35 -112 44 -204 33z m143 -159 c33 -17 36 -51 8 -97 -24 -38 -73 -76 -99 -76 -46 0 -74 78 -52 144 18 54 71 66 143 29z"
       id="path5"
       style="fill:#56825f;fill-opacity:1" />
    <path
       d="M1150 3010 c-11 -11 -20 -24 -20 -28 0 -5 -20 -130 -45 -278 -48 -284 -49 -311 -4 -334 32 -17 79 -11 103 13 19 19 26 45 40 143 9 65 19 134 22 152 10 67 40 38 119 -115 56 -110 90 -143 146 -143 68 0 91 41 109 193 5 42 14 103 19 135 31 182 24 242 -32 261 -24 9 -35 8 -54 -4 -31 -21 -38 -41 -52 -149 -7 -50 -15 -94 -17 -98 -12 -19 -35 -5 -53 31 -30 57 -138 197 -171 221 -36 26 -84 26 -110 0z"
       id="path6"
       style="fill:#56825f;fill-opacity:1" />
    <path
       d="M2503 3018 c-25 -12 -43 -56 -43 -106 0 -22 -9 -45 -25 -64 -37 -44 -33 -80 15 -120 39 -33 40 -34 55 -141 16 -116 23 -138 57 -161 34 -24 66 -19 100 15 34 33 33 12 11 210 l-6 57 37 12 c66 21 86 81 41 125 -16 17 -35 25 -58 25 -39 0 -49 10 -66 62 -14 42 -62 98 -83 97 -7 0 -23 -5 -35 -11z"
       id="path7"
       style="fill:#56825f;fill-opacity:1" />
    <path
       d="M2932 2958 c-19 -14 -45 -49 -65 -88 -30 -61 -32 -71 -32 -170 1 -120 12 -154 71 -220 55 -61 105 -84 172 -77 69 7 102 29 102 66 0 33 -13 46 -56 55 -38 8 -104 62 -104 85 0 13 17 21 72 34 125 29 186 88 175 171 -15 113 -240 209 -335 144z m158 -103 c29 -15 40 -48 20 -60 -5 -3 -32 -9 -60 -12 l-50 -6 0 31 c0 33 22 62 46 62 8 0 28 -7 44 -15z"
       id="path8"
       style="fill:#56825f;fill-opacity:1" />
    <path
       d="M3409 2951 c-24 -25 -29 -38 -29 -79 0 -44 6 -57 48 -112 100 -132 113 -154 110 -185 -3 -30 -3 -30 -60 -27 -51 3 -61 0 -84 -23 -20 -20 -24 -32 -19 -53 26 -104 197 -125 293 -37 37 34 37 34 37 117 -1 97 -21 142 -105 241 -53 62 -59 80 -36 106 19 21 11 33 -41 60 -56 28 -79 27 -114 -8z"
       id="path9"
       style="fill:#56825f;fill-opacity:1" />
    <path
       d="M2030 2920 c-8 -5 -37 -10 -64 -10 -43 0 -53 -4 -82 -35 -43 -46 -57 -111 -52 -250 4 -134 20 -174 87 -216 51 -33 119 -39 174 -15 47 20 106 83 136 146 22 47 26 69 26 145 0 82 -3 95 -31 145 -38 68 -83 100 -138 100 -23 0 -48 -5 -56 -10z m68 -149 c9 -11 12 -36 10 -78 -3 -51 -9 -69 -35 -100 -38 -48 -60 -53 -73 -18 -13 33 -13 166 0 199 8 22 13 24 47 19 21 -3 44 -13 51 -22z"
       id="path10"
       style="fill:#56825f;fill-opacity:1" />
    <path
       d="M2558 2081 c-51 -10 -113 -53 -174 -117 -32 -34 -59 -54 -73 -54 -14 0 -48 24 -89 64 -80 76 -98 86 -153 86 -62 0 -112 -28 -240 -135 -62 -52 -119 -95 -126 -95 -8 0 -36 36 -64 80 -29 45 -65 88 -83 100 -45 27 -115 36 -173 20 -108 -29 -253 -141 -253 -196 0 -60 82 -63 179 -5 73 43 143 66 166 54 8 -5 36 -44 62 -88 57 -95 96 -125 163 -125 57 0 97 24 235 143 55 48 109 87 120 87 12 0 44 -24 75 -56 64 -66 117 -93 182 -94 69 0 91 12 183 100 46 44 90 80 99 80 8 0 42 -35 75 -77 72 -93 108 -117 176 -117 42 0 64 8 130 47 44 26 109 57 145 68 90 29 236 36 331 16 181 -38 227 -32 301 43 40 39 48 53 48 84 0 41 -25 72 -66 82 -20 5 -37 -1 -72 -26 l-46 -33 -113 18 c-197 31 -392 -4 -592 -105 -39 -19 -67 -28 -76 -23 -8 5 -39 39 -70 76 -30 36 -66 74 -79 82 -30 20 -80 26 -128 16z"
       id="path11"
       style="fill:#56825f;fill-opacity:1" />
    <path
       d="M2534 1335 c-27 -13 -87 -59 -133 -101 -80 -73 -86 -76 -123 -71 -26 4 -60 22 -104 56 -119 92 -174 83 -303 -49 -136 -139 -166 -148 -197 -62 -32 90 -65 150 -91 167 -62 41 -155 7 -235 -87 -100 -117 -128 -187 -90 -221 37 -34 62 -22 153 75 97 104 107 106 128 21 30 -116 78 -163 170 -163 79 0 130 29 230 132 47 48 92 88 99 88 7 0 32 -18 56 -40 59 -55 118 -80 190 -80 81 0 130 26 209 110 73 78 98 86 121 41 22 -42 80 -89 128 -101 50 -14 148 6 238 47 136 62 206 74 295 53 38 -10 184 -25 342 -37 67 -5 73 -3 97 20 38 38 35 106 -6 128 -41 22 -330 51 -523 53 -90 1 -106 -2 -160 -28 -81 -38 -193 -76 -225 -76 -28 0 -47 17 -70 64 -44 87 -106 106 -196 61z"
       id="path12"
       style="fill:#56825f;fill-opacity:1" />
  </g>
  <path
     style="fill:#ffffff;stroke:#ffffff;stroke-width:0;stroke-linecap:round;stroke-linejoin:round;stroke-miterlimit:3.9"
     d="m 174.42502,611.80764 c -8.87566,-1.04779 -12.16484,-3.31165 -18.41899,-12.67732 -10.74897,-16.0967 -41.70889,-80.95577 -45.31666,-94.93552 -1.05761,-4.09813 -4.86514,-27.28985 -8.46118,-51.53715 l -6.538253,-44.086 -0.02917,-87.55107 c -0.02078,-62.36921 0.427644,-92.01593 1.559065,-103.07431 2.628683,-25.69243 5.155388,-44.57366 7.893888,-58.9883 1.61071,-8.47832 3.12944,-24.18125 4.00347,-41.394 l 1.40827,-27.733546 6.83023,-4.204253 c 10.75298,-6.618857 18.85559,-8.237228 40.98135,-8.185399 30.47517,0.07139 83.94728,4.909707 112.93825,10.218997 11.23503,2.057538 19.00631,2.375017 58.13594,2.375017 43.59673,0 45.69357,-0.109883 60.30109,-3.16003 18.25213,-3.811169 72.97617,-12.873627 83.61523,-13.846923 4.1967,-0.383928 10.90274,-0.305716 14.90231,0.173806 6.93653,0.831644 7.64529,1.256854 15.36695,9.219002 12.20135,12.581364 21.28097,32.017419 29.66319,63.497809 5.92504,22.25207 13.3981,69.39104 15.65159,98.7278 3.67523,47.84546 5.46753,66.74306 10.54145,111.14639 4.41065,38.59894 5.12843,48.80023 5.76699,81.9627 l 0.72935,37.8767 -6.43665,24.21625 c -9.48378,35.68032 -16.34211,51.5759 -25.43136,58.94231 -6.78005,5.49493 -16.86072,11.02308 -27.40285,15.02748 l -8.69301,3.30203 -60.23017,1.00839 c -33.12659,0.55461 -63.90687,1.60555 -68.40062,2.33539 -4.49374,0.72985 -17.34698,4.62054 -28.56276,8.64596 -24.77754,8.89287 -41.97802,13.85411 -65.72017,18.95611 -17.62804,3.78813 -18.80399,3.87676 -55.88366,4.2121 -20.83218,0.18839 -40.97558,-0.0233 -44.76311,-0.47042 z m 66.89374,-45.09166 c 3.04082,-1.47204 11.01844,-7.94556 17.72806,-14.38561 7.48021,-7.1797 12.76454,-11.35984 13.66052,-10.80608 0.80369,0.4967 4.98613,3.57107 9.29434,6.83194 9.64551,7.30067 18.42018,9.60567 28.70437,7.54031 7.77784,-1.56201 14.49504,-5.93507 23.93256,-15.58061 3.73329,-3.81559 7.51937,-6.93744 8.41351,-6.93744 0.89414,0 4.85721,3.30251 8.80683,7.33892 12.14655,12.41343 20.90625,12.7261 48.64062,1.73616 16.03635,-6.3545 24.93984,-7.67658 37.39903,-5.5534 4.36085,0.74314 17.62887,2.2536 29.48448,3.35658 23.61334,2.19685 27.02424,1.75207 30.05977,-3.91988 2.00713,-3.75034 1.95806,-11.06054 -0.0908,-13.52928 -0.82399,-0.99284 -3.53332,-2.38152 -6.02072,-3.08595 -7.85243,-2.22378 -34.78608,-4.95177 -56.68064,-5.74093 -17.34708,-0.62525 -21.99737,-0.42076 -26.07904,1.14676 -2.73209,1.04924 -10.27638,3.97636 -16.7651,6.50472 -6.48871,2.52837 -13.82842,4.87341 -16.31045,5.21119 -5.10366,0.69459 -6.21551,-0.2062 -12.62711,-10.22999 -2.99593,-4.68378 -5.19212,-6.62703 -8.93914,-7.9096 -9.0003,-3.08071 -17.2972,0.80021 -35.39299,16.55526 -12.54099,10.91879 -13.6696,10.88003 -31.45413,-1.08019 -7.13532,-4.79856 -9.4213,-5.70268 -14.41854,-5.70268 -7.44513,0 -11.71746,2.76365 -26.87485,17.38458 -11.66339,11.25058 -15.57632,13.62879 -18.47106,11.22637 -0.92705,-0.76939 -3.46237,-5.80678 -5.63405,-11.19422 -2.17169,-5.38744 -5.76528,-11.89704 -7.98579,-14.46579 -3.66338,-4.2379 -4.61212,-4.67044 -10.24437,-4.67044 -8.12824,0 -15.37363,4.24026 -24.52508,14.35295 -6.38893,7.05999 -14.38266,20.41688 -14.38266,24.03227 0,0.82333 1.15824,2.96942 2.57386,4.76908 4.44328,5.64872 7.50604,4.44105 20.41953,-8.05156 7.53716,-7.29152 12.3584,-11.07304 13.53963,-10.61976 1.00894,0.38717 2.47921,3.09841 3.26725,6.025 2.35964,8.76301 7.20981,17.08658 11.47003,19.68416 5.67446,3.45987 18.1085,3.34635 25.50213,-0.23284 z m -8.34502,-100.59195 c 5.1444,-1.74991 9.38922,-4.73322 26.6705,-18.74428 7.37135,-5.97645 13.84698,-10.86627 14.39027,-10.86627 0.54327,0 4.77107,3.4372 9.39508,7.63822 10.08652,9.16382 16.18627,12.16784 24.78109,12.20425 9.10698,0.0386 11.11643,-1.01399 24.7062,-12.94126 6.65941,-5.84474 12.55871,-10.62679 13.10958,-10.62679 0.55086,0 4.67557,4.44085 9.16602,9.86855 10.38027,12.54687 15.12273,15.57748 24.18999,15.45836 5.84251,-0.0768 8.92507,-1.17523 21.21566,-7.56031 16.41954,-8.53011 25.53373,-10.82285 42.74557,-10.75293 6.14721,0.025 15.84887,0.97187 21.55926,2.10424 19.56589,3.87986 27.59704,2.08798 37.11859,-8.28178 6.69203,-7.28817 7.18603,-12.77951 1.64785,-18.31768 -4.6349,-4.63489 -8.05452,-4.57599 -15.6861,0.27022 l -6.14196,3.90025 -11.79766,-1.66081 c -28.62271,-4.02937 -52.06291,-0.39568 -79.76218,12.36468 -4.59541,2.11699 -9.39293,3.84907 -10.66114,3.84907 -1.34684,0 -5.82083,-4.11687 -10.75733,-9.89871 -9.78647,-11.46232 -15.56288,-14.54366 -24.87219,-13.26767 -8.14103,1.11586 -14.50935,4.82133 -24.99463,14.54341 -5.11494,4.74263 -10.01407,8.62297 -10.88696,8.62297 -0.87291,0 -6.00895,-3.82956 -11.41345,-8.51012 -11.9501,-10.34941 -13.791,-11.36293 -20.61097,-11.34749 -7.82515,0.0177 -15.84354,4.39707 -32.68044,17.84894 -8.19627,6.54842 -15.51989,11.91462 -16.2747,11.92488 -0.75482,0.0103 -3.77672,-3.47406 -6.71534,-7.74296 -9.96459,-14.47538 -13.69061,-17.42719 -23.93773,-18.96384 -12.03745,-1.80513 -35.34651,9.71324 -43.69561,21.59255 -3.51112,4.99573 -3.60174,5.43166 -1.79027,8.6126 1.726,3.03086 2.55256,3.33649 8.66321,3.20333 5.43426,-0.11841 8.92961,-1.27188 17.87528,-5.89883 6.57548,-3.40102 12.77962,-5.75162 15.18074,-5.75162 3.72558,0 4.67416,0.91244 11.49619,11.05824 10.90253,16.21439 17.50204,19.90065 28.76758,16.06859 z M 155.1363,373.91977 c 5.17758,-2.16332 6.08849,-4.74548 9.46146,-26.82015 1.40893,-9.2208 3.02691,-17.2315 3.59552,-17.80154 1.39343,-1.39693 5.77299,4.78441 13.78408,19.45499 7.98665,14.62581 11.73609,18.2163 19.02278,18.2163 10.80303,0 12.48969,-3.75189 17.50855,-38.94691 4.63134,-32.47746 4.23397,-36.68991 -3.77674,-40.03701 -4.03566,-1.68621 -4.77353,-1.67092 -7.56278,0.15666 -4.13573,2.70984 -5.95183,7.65945 -7.86411,21.43298 -0.88035,6.34088 -1.96273,11.75267 -2.40527,12.02617 -1.39513,0.86224 -3.31022,-1.02567 -6.88769,-6.78997 -6.40019,-10.31248 -19.36492,-26.07135 -22.99167,-27.94681 -4.85074,-2.50841 -10.297,-2.33958 -13.71118,0.42506 -2.49278,2.01853 -3.43649,6.00888 -8.15009,34.46159 -5.95052,35.91916 -6.70068,47.46936 -3.27676,50.45208 4.28543,3.73323 7.44729,4.14273 13.2539,1.71656 z m 125.86697,-4.13124 c 5.11089,-2.37574 12.94503,-11.19093 16.67371,-18.76171 2.20515,-4.47739 2.95024,-8.42076 3.28661,-17.39459 0.47455,-12.65973 -1.05003,-18.69128 -6.63956,-26.26747 -6.38895,-8.65972 -12.42819,-10.21906 -28.49142,-7.35647 -12.55634,2.23762 -13.4409,2.70129 -17.41653,9.12924 -3.61011,5.83699 -3.78859,6.78269 -4.21253,22.32084 -0.55486,20.33698 0.95765,27.87107 6.76018,33.67361 7.53899,7.539 19.76233,9.43378 30.03954,4.65655 z m 205.77843,-2.53165 c 7.28036,-5.11683 8.34857,-7.88008 7.61994,-19.71139 -0.73359,-11.9118 -3.16566,-17.79871 -11.73437,-28.40353 -8.55288,-10.58525 -9.42077,-12.47844 -7.18418,-15.6716 2.63036,-3.75537 1.23005,-5.94423 -5.93813,-9.28197 -8.36897,-3.89687 -10.1488,-3.75002 -15.14871,1.24989 -3.64325,3.64326 -4.22169,5.04836 -4.21768,10.24534 0.005,6.70045 0.59688,7.85629 12.90337,25.20538 5.97019,8.41647 8.21709,12.62723 7.95207,14.90231 -0.35176,3.01963 -0.74938,3.17586 -8.3241,3.27056 -7.05811,0.0883 -8.28286,0.48099 -10.86626,3.48436 -1.60137,1.8617 -2.90949,4.3317 -2.90693,5.48891 0.007,3.04665 4.39941,9.78719 7.43785,11.41332 8.12009,4.34573 22.58949,3.30287 30.40713,-2.19158 z m -67.65425,0.021 c 3.46561,-1.73126 4.42661,-3.00575 4.74171,-6.28849 0.49147,-5.1202 -1.26331,-7.31692 -7.10037,-8.88869 -5.65293,-1.52218 -14.75345,-9.49734 -12.9245,-11.32629 0.69823,-0.69824 4.53817,-2.12309 8.5332,-3.16633 9.37815,-2.44897 15.15596,-5.46965 19.78948,-10.34604 3.15626,-3.32169 3.72558,-4.9047 3.72558,-10.35907 0,-4.67847 -0.75989,-7.50354 -2.78015,-10.33581 -3.93971,-5.52319 -13.37749,-11.20327 -22.49666,-13.53949 -14.65041,-3.75326 -21.99212,-0.19227 -29.01445,14.07309 -3.85795,7.83714 -4.07022,8.9796 -3.96579,21.3454 0.0607,7.18578 0.76673,15.38804 1.56901,18.22724 1.72347,6.09908 10.99403,16.89805 17.42311,20.29558 5.82128,3.07632 16.66213,3.22516 22.49983,0.3089 z m -64.73832,-2.22587 c 2.06496,-1.73756 4.04566,-4.11262 4.40155,-5.2779 0.3559,-1.16529 -0.0642,-8.61215 -0.93355,-16.54857 l -1.58063,-14.42986 4.23049,-1.52976 c 6.03812,-2.18341 8.9461,-5.55599 8.9461,-10.37541 0,-5.25086 -4.46531,-9.64266 -10.83926,-10.66081 -4.16218,-0.66485 -5.07427,-1.50824 -8.18737,-7.57052 -4.43944,-8.64517 -9.18166,-13.65254 -12.92957,-13.65254 -4.65772,0 -8.72084,5.06334 -9.59112,11.9522 -0.4207,3.33012 -2.14197,8.65188 -3.82505,11.82615 -4.27155,8.05608 -3.94438,11.02492 1.87587,17.02228 5.36732,5.53066 5.30252,5.35244 8.16215,22.45015 2.17215,12.98725 3.045,15.21683 7.05751,18.02731 4.02332,2.81802 8.94447,2.3589 13.21288,-1.23272 z m -77.80832,-139.2159 c 5.22143,-2.63187 16.79574,-15.13122 19.84589,-21.43198 3.26591,-6.74646 4.33476,-17.98865 2.29726,-24.16235 -1.69683,-5.14145 -6.49578,-9.52788 -15.44666,-14.11886 -5.31479,-2.72601 -7.95932,-3.24807 -16.31786,-3.22134 -12.34914,0.0395 -18.03021,1.83757 -22.73461,7.19558 -7.45576,8.49164 -10.55979,28.80542 -6.03056,39.46605 2.52049,5.93259 7.58781,12.58849 11.57086,15.1983 6.50142,4.25988 19.46565,4.77941 26.81568,1.0746 z m -104.37064,-0.0103 c 1.98292,-1.79451 2.27104,-4.14712 2.27104,-18.54419 0,-18.58749 -0.9167,-17.06465 11.17673,-18.56706 9.42401,-1.17077 14.02118,-3.30906 17.81889,-8.2881 12.52285,-16.41831 7.92937,-43.67614 -9.46765,-56.18136 -4.50107,-3.23543 -6.35726,-3.72363 -15.89062,-4.17942 -6.2269,-0.29771 -12.60894,0.0828 -15.08304,0.89935 -6.22768,2.05532 -10.706,7.32759 -11.96968,14.09174 -1.20998,6.47667 -0.005,31.25209 2.95497,60.75444 2.14195,21.34941 3.19279,26.28642 6.33388,29.75727 2.59622,2.8688 8.82055,3.0039 11.85548,0.25733 z m 187.32526,-2.02912 c 7.07771,-3.74278 9.8048,-7.63506 10.71113,-15.28767 1.00812,-8.512 -2.00735,-14.85341 -12.42641,-26.13224 -8.83654,-9.56571 -8.93662,-10.79824 -1.00561,-12.38444 5.82782,-1.16556 7.19455,-3.47218 4.49688,-7.58935 -4.10929,-6.27155 -6.85695,-7.70639 -14.83273,-7.74564 -11.73768,-0.0578 -19.21194,6.09611 -21.11985,17.38884 -1.15818,6.85525 1.58373,11.83432 12.25446,22.25298 12.49301,12.1979 12.56937,15.74591 0.20965,9.74109 l -5.61754,-2.72922 -3.41916,2.54334 c -1.88054,1.39885 -3.60364,3.78972 -3.82912,5.31309 -0.5159,3.48542 5.05035,11.65078 10.18472,14.94036 5.62402,3.6033 17.27222,3.45472 24.39358,-0.31114 z m 63.05687,-7.88808 c 5.2171,-1.39754 6.67498,-6.57245 5.72744,-20.33008 -0.91577,-13.29641 -1.2079,-12.60447 5.98611,-14.17848 4.84631,-1.06034 8.41693,-5.41186 8.41693,-10.25773 0,-5.24028 -3.44553,-8.72761 -9.55514,-9.67109 -10.15834,-1.5687 -10.63559,-1.9528 -13.16083,-10.59207 -2.85831,-9.77875 -5.01128,-12.41194 -10.14842,-12.41194 -7.15069,0 -8.36531,2.00555 -9.2192,15.22245 -0.64617,10.00165 -1.21586,12.383 -3.55911,14.87728 -3.85966,4.10842 -3.49596,7.22625 1.39605,11.96777 3.45469,3.34842 4.32697,5.28905 4.99376,11.10988 2.19275,19.14215 8.47672,27.11574 19.12241,24.26401 z"
     id="path13"
     transform="scale(0.75)" />
  <path
     style="fill:#ffffff;stroke:#ffffff;stroke-width:0;stroke-linecap:round;stroke-linejoin:round;stroke-miterlimit:3.9"
     d="m 174.65743,169.90619 c -2.57237,-2.08299 -2.90224,-3.64886 -3.55325,-16.86752 l -0.71764,-14.57138 h 4.61269 c 6.34437,0 8.79002,1.59277 12.70611,8.27507 4.61478,7.87454 4.79509,16.49005 0.43632,20.84861 -4.28212,4.28191 -9.87051,5.24143 -13.48423,2.31522 z"
     id="path14"
     transform="scale(0.75)" />
  <path
     style="fill:#ffffff;stroke:#ffffff;stroke-width:0;stroke-linecap:round;stroke-linejoin:round;stroke-miterlimit:3.9"
     d=""
     id="path15"
     transform="scale(0.75)" />
  <path
     style="fill:#ffffff;stroke:#ffffff;stroke-width:0;stroke-linecap:round;stroke-linejoin:round;stroke-miterlimit:3.9"
     d=""
     id="path16"
     transform="scale(0.75)" />
  <path
     style="fill:#ffffff;stroke:#ffffff;stroke-width:0;stroke-linecap:round;stroke-linejoin:round;stroke-miterlimit:3.9"
     d="m 400.02682,316.76425 c 0,-1.23388 0.0392,-2.5629 0.0871,-2.95339 0.20966,-1.70987 0.87429,-3.3947 1.84988,-4.6894 1.28774,-1.70896 3.13559,-2.62741 4.71978,-2.34591 1.61554,0.28706 4.88643,1.59044 6.16224,2.45551 1.44956,0.98288 2.61571,2.5065 2.97541,3.88749 0.18427,0.70747 0.16113,1.59599 -0.0567,2.17828 -0.25748,0.68817 -0.88892,1.29035 -1.59415,1.52028 -1.03104,0.33614 -2.98972,0.7635 -4.84346,1.05677 -0.69195,0.10947 -9.02718,1.13379 -9.22602,1.13379 -0.041,0 -0.074,-1.00132 -0.074,-2.24342 z"
     id="path17"
     transform="scale(0.75)" />
  <path
     style="fill:#ffffff;stroke:#ffffff;stroke-width:0;stroke-linecap:round;stroke-linejoin:round;stroke-miterlimit:3.9"
     d="m 264.67473,207.71953 c -4.0217,-0.86718 -6.79749,-5.9959 -6.79749,-12.55947 0,-5.97175 2.15365,-10.46254 5.80075,-12.09571 1.74458,-0.78122 5.29175,-0.93968 7.81399,-0.34906 1.04537,0.2448 3.03716,0.9435 4.42618,1.55267 2.80731,1.2312 4.41088,2.66237 5.00704,4.46875 0.71433,2.16445 -0.2694,5.96622 -2.36887,9.15477 -3.78421,5.74724 -10.55981,10.54431 -13.8816,9.82805 z"
     id="path18"
     transform="scale(0.75)" />
  <path
     style="fill:#ffffff;stroke:#ffffff;stroke-width:0;stroke-linecap:round;stroke-linejoin:round;stroke-miterlimit:3.9"
     d="m 268.59399,348.53489 c -0.90013,-0.50268 -1.75189,-2.22466 -2.31514,-4.68048 -0.58428,-2.54754 -0.84254,-15.59037 -0.38638,-19.51406 0.44462,-3.82448 1.16246,-6.03716 2.25754,-6.9586 0.82397,-0.69333 0.97501,-0.72293 2.79501,-0.54781 2.77529,0.26702 5.02789,0.88757 6.86877,1.89219 1.3068,0.71317 1.73741,1.1322 2.28281,2.22144 0.60536,1.20899 0.6833,1.75555 0.78382,5.49678 0.2497,9.29344 -0.79305,12.61648 -5.78871,18.44756 -2.8481,3.32438 -4.954,4.50506 -6.49772,3.64298 z"
     id="path19"
     transform="scale(0.75)" />
</svg>
