<?xml version="1.0" encoding="utf-8"?>
<!DOCTYPE svg PUBLIC "-//W3C//DTD SVG 20010904//EN" "http://www.w3.org/TR/2001/REC-SVG-20010904/DTD/svg10.dtd">
<svg version="1.0" xmlns="http://www.w3.org/2000/svg" width="600pt" height="688pt" viewBox="0 0 600 688" style="" preserveAspectRatio="xMidYMid meet">
<g fill="#317157FF" stroke="#317157FF">
<path d="M 462.830 24.503 C 462.598 24.735 459.954 25.125 456.954 25.369 C 453.954 25.614 449.925 26.063 448.000 26.367 C 446.075 26.671 442.475 27.155 440.000 27.443 C 437.525 27.731 434.150 28.284 432.500 28.672 C 430.850 29.060 428.891 29.262 428.147 29.121 C 427.403 28.980 426.053 29.173 425.147 29.550 C 424.241 29.927 421.475 30.428 419.000 30.663 C 416.525 30.899 410.900 31.753 406.500 32.561 C 402.100 33.369 396.250 34.262 393.500 34.544 C 390.750 34.827 387.825 35.333 387.000 35.668 C 385.412 36.314 384.823 36.434 378.500 37.407 C 376.300 37.745 371.575 38.692 368.000 39.512 C 358.972 41.580 357.967 41.794 354.000 42.489 C 352.075 42.826 349.150 43.364 347.500 43.684 C 342.777 44.601 265.902 44.808 262.527 43.913 C 260.862 43.472 257.475 42.924 255.000 42.697 C 252.525 42.469 249.825 42.029 249.000 41.719 C 246.602 40.818 240.155 39.714 230.785 38.599 C 228.741 38.356 226.266 37.918 225.285 37.626 C 224.303 37.334 219.675 36.808 215.000 36.457 C 210.325 36.107 204.700 35.657 202.500 35.458 C 200.300 35.259 195.421 34.850 191.657 34.550 C 187.893 34.249 184.483 33.799 184.079 33.549 C 183.675 33.299 177.979 32.862 171.422 32.579 C 164.865 32.295 153.650 31.711 146.500 31.281 C 121.740 29.793 88.955 31.145 84.500 33.838 C 83.950 34.170 82.600 34.564 81.500 34.714 C 78.308 35.148 68.019 39.358 66.139 41.000 C 65.195 41.825 63.764 42.637 62.961 42.805 C 62.157 42.973 61.006 43.753 60.401 44.539 C 59.797 45.326 59.093 45.759 58.836 45.503 C 58.345 45.012 50.677 52.088 45.295 58.000 C 43.542 59.925 40.699 62.718 38.976 64.206 C 36.201 66.605 35.876 67.435 36.125 71.493 C 36.280 74.012 36.090 75.757 35.703 75.370 C 35.317 74.983 35.000 76.617 35.000 79.000 C 35.000 81.383 35.287 83.047 35.637 82.696 C 36.702 81.631 35.531 118.332 34.443 120.092 C 34.119 120.616 33.935 122.273 34.033 123.773 C 34.131 125.273 34.126 126.275 34.021 126.000 C 33.916 125.725 32.989 130.189 31.961 135.919 C 30.933 141.650 30.365 146.782 30.700 147.324 C 31.040 147.874 30.799 147.994 30.155 147.595 C 29.037 146.905 28.837 147.955 28.497 156.275 C 28.435 157.802 28.034 158.702 27.606 158.275 C 27.178 157.849 26.948 159.774 27.095 162.553 C 27.241 165.332 27.073 168.073 26.721 168.643 C 25.721 170.261 23.769 187.955 24.407 189.618 C 24.744 190.496 24.552 190.841 23.937 190.461 C 23.245 190.034 22.894 192.948 22.889 199.159 C 22.878 211.757 22.330 219.997 21.555 219.222 C 21.204 218.871 20.998 221.770 21.096 225.665 C 21.194 229.560 21.026 233.148 20.723 233.639 C 19.956 234.879 18.488 274.443 18.557 292.000 C 18.866 370.630 19.245 401.014 20.024 409.500 C 20.529 415.000 20.928 421.739 20.911 424.476 C 20.894 427.213 21.219 429.115 21.632 428.701 C 22.046 428.288 22.435 429.198 22.497 430.725 C 22.906 440.743 23.072 442.261 23.692 441.641 C 24.073 441.261 24.435 442.198 24.497 443.725 C 24.899 453.568 25.093 455.061 25.907 454.558 C 26.405 454.249 26.580 454.891 26.294 455.984 C 26.008 457.076 26.113 458.764 26.526 459.735 C 26.939 460.706 27.176 463.013 27.052 464.862 C 26.906 467.050 27.203 467.993 27.902 467.560 C 28.528 467.174 28.763 467.454 28.465 468.229 C 28.184 468.963 28.636 474.724 29.469 481.031 C 30.302 487.339 30.987 493.989 30.992 495.809 C 30.996 497.629 31.385 498.880 31.856 498.589 C 32.326 498.298 32.500 499.164 32.242 500.514 C 31.984 501.863 32.112 503.762 32.525 504.733 C 32.939 505.705 33.173 508.075 33.045 510.000 C 32.918 511.925 33.167 513.151 33.599 512.725 C 34.031 512.298 34.435 513.198 34.497 514.725 C 34.813 522.476 35.061 524.272 35.724 523.609 C 36.122 523.211 36.495 523.699 36.553 524.693 C 36.611 525.687 36.735 527.764 36.829 529.309 C 36.923 530.854 37.408 531.866 37.907 531.558 C 38.405 531.249 38.578 531.898 38.290 532.999 C 38.002 534.099 38.255 535.000 38.852 535.000 C 39.449 535.000 39.723 535.563 39.461 536.250 C 39.198 536.938 39.922 539.975 41.068 543.000 C 42.214 546.025 43.835 550.413 44.670 552.750 C 45.505 555.088 46.546 557.000 46.983 557.000 C 47.420 557.000 47.723 557.563 47.655 558.250 C 47.470 560.136 52.110 570.000 53.182 570.000 C 53.697 570.000 53.869 570.403 53.564 570.896 C 53.260 571.389 53.680 573.076 54.499 574.646 C 55.318 576.216 56.024 577.050 56.068 576.500 C 56.112 575.950 56.338 576.517 56.570 577.761 C 57.120 580.716 65.979 598.401 67.127 598.835 C 67.614 599.020 67.781 599.546 67.497 600.005 C 67.214 600.463 67.693 601.550 68.562 602.419 C 69.432 603.289 69.868 604.000 69.533 604.000 C 68.793 604.000 79.622 625.379 84.672 633.886 C 86.667 637.249 88.709 640.000 89.209 640.000 C 89.709 640.000 89.838 640.453 89.496 641.007 C 89.153 641.561 89.574 642.283 90.431 642.612 C 91.288 642.941 91.762 643.576 91.485 644.024 C 91.208 644.472 92.502 646.450 94.359 648.419 C 96.216 650.389 97.492 652.000 97.194 652.000 C 96.895 652.000 97.708 653.125 99.000 654.500 C 100.292 655.875 101.897 657.000 102.567 657.000 C 103.238 657.000 104.056 657.704 104.386 658.563 C 104.716 659.423 105.392 659.876 105.888 659.569 C 106.384 659.262 107.059 659.712 107.388 660.569 C 107.717 661.426 108.439 661.847 108.993 661.504 C 109.547 661.162 110.000 661.310 110.000 661.832 C 110.000 662.957 117.118 665.941 121.453 666.633 C 123.129 666.900 125.850 667.430 127.500 667.810 C 129.150 668.189 152.550 668.496 179.500 668.491 C 226.855 668.483 228.819 668.407 238.000 666.228 C 243.225 664.987 248.400 663.827 249.500 663.649 C 252.723 663.127 262.369 660.893 264.000 660.291 C 264.825 659.986 266.850 659.566 268.500 659.356 C 270.150 659.147 273.075 658.440 275.000 657.785 C 276.925 657.130 279.063 656.706 279.750 656.841 C 280.438 656.977 281.000 656.730 281.001 656.294 C 281.001 655.857 282.128 655.435 283.504 655.356 C 284.881 655.276 286.793 654.871 287.754 654.455 C 288.714 654.040 290.400 653.537 291.500 653.338 C 292.600 653.139 294.175 652.689 295.000 652.337 C 295.825 651.986 297.098 651.576 297.828 651.426 C 298.559 651.276 299.909 650.821 300.828 650.413 C 301.748 650.006 302.725 649.623 303.000 649.562 C 307.117 648.653 313.000 646.579 313.000 646.037 C 313.000 645.650 313.563 645.329 314.250 645.323 C 315.768 645.311 328.298 640.836 329.000 640.056 C 329.275 639.750 330.345 639.355 331.377 639.177 C 332.409 638.999 334.434 638.368 335.877 637.774 C 337.320 637.180 339.226 636.550 340.114 636.374 C 341.001 636.198 343.026 635.531 344.614 634.892 C 346.201 634.253 348.412 633.607 349.526 633.457 C 350.640 633.307 354.164 632.701 357.356 632.111 C 361.042 631.430 385.074 631.010 423.217 630.960 C 478.210 630.888 491.976 630.365 495.458 628.216 C 495.984 627.891 497.334 627.522 498.458 627.396 C 499.581 627.270 501.850 626.604 503.500 625.917 C 506.935 624.486 506.495 624.626 510.750 623.614 C 512.538 623.189 514.000 622.502 514.000 622.087 C 514.000 621.673 514.660 621.333 515.467 621.333 C 517.592 621.333 525.000 617.848 525.000 616.848 C 525.000 616.382 525.338 616.110 525.750 616.244 C 526.836 616.597 537.687 610.313 540.020 607.980 C 541.109 606.891 542.000 606.255 542.000 606.567 C 542.000 607.932 551.328 599.320 554.395 595.123 C 558.933 588.914 565.144 577.041 564.445 575.910 C 564.135 575.410 564.286 575.000 564.780 575.000 C 566.089 575.000 568.142 570.039 567.358 568.771 C 566.961 568.128 567.159 567.980 567.845 568.405 C 568.543 568.836 569.060 568.402 569.152 567.309 C 569.236 566.314 569.352 564.903 569.410 564.174 C 569.468 563.445 569.921 563.220 570.417 563.674 C 570.939 564.153 571.055 563.764 570.691 562.750 C 570.342 561.779 570.541 561.000 571.138 561.000 C 571.730 561.000 571.946 560.302 571.618 559.448 C 571.277 558.558 571.445 558.157 572.011 558.507 C 572.555 558.843 573.069 558.079 573.152 556.809 C 573.332 554.085 573.701 552.297 573.938 553.000 C 574.031 553.275 575.226 549.711 576.595 545.080 C 577.964 540.449 578.854 536.061 578.573 535.330 C 578.292 534.598 578.551 534.000 579.148 534.000 C 579.745 534.000 579.998 533.099 579.710 531.999 C 579.422 530.898 579.522 530.204 579.931 530.457 C 580.860 531.032 583.214 521.155 582.444 519.910 C 582.135 519.409 582.411 519.000 583.058 519.000 C 583.768 519.000 584.047 518.024 583.761 516.530 C 583.501 515.172 583.674 514.298 584.144 514.589 C 584.615 514.880 585.077 513.854 585.171 512.309 C 585.265 510.764 585.389 508.687 585.447 507.693 C 585.505 506.699 585.798 506.131 586.098 506.431 C 586.812 507.145 589.115 492.786 589.215 487.000 C 589.909 446.757 588.973 403.384 587.355 400.765 C 586.969 400.140 586.746 397.125 586.860 394.064 C 587.020 389.746 586.814 388.836 585.939 390.000 C 585.002 391.247 584.918 391.174 585.443 389.570 C 586.186 387.302 584.990 370.677 584.144 371.522 C 583.827 371.839 583.699 370.288 583.859 368.075 C 584.019 365.861 583.802 363.489 583.378 362.803 C 582.954 362.117 582.704 359.968 582.823 358.028 C 582.941 356.088 582.568 352.025 581.992 349.000 C 581.417 345.975 580.985 341.035 581.033 338.023 C 581.082 335.010 580.844 332.823 580.505 333.161 C 580.167 333.500 579.695 330.244 579.457 325.926 C 579.220 321.608 578.610 316.146 578.102 313.788 C 577.595 311.429 576.863 305.675 576.477 301.000 C 576.090 296.325 575.527 292.088 575.226 291.585 C 574.925 291.082 574.738 287.707 574.810 284.085 C 574.898 279.669 574.662 278.159 574.092 279.500 C 573.569 280.730 573.438 278.925 573.752 274.814 C 574.033 271.137 573.916 267.312 573.491 266.314 C 573.066 265.317 572.752 260.900 572.792 256.500 C 572.833 252.100 572.594 249.400 572.261 250.500 C 571.708 252.331 571.500 248.170 571.160 228.500 C 571.068 223.191 570.777 221.862 569.954 223.000 C 569.094 224.189 569.003 224.024 569.516 222.206 C 570.502 218.708 568.964 204.488 567.779 206.147 C 567.068 207.141 566.977 206.992 567.437 205.587 C 568.207 203.230 567.011 191.875 566.054 192.467 C 565.673 192.702 565.557 191.568 565.794 189.947 C 566.032 188.326 565.804 187.000 565.287 187.000 C 564.770 187.000 564.551 185.538 564.801 183.750 C 565.051 181.963 564.886 180.849 564.436 181.275 C 563.985 181.702 563.565 180.802 563.503 179.275 C 563.143 170.450 562.929 168.738 562.270 169.397 C 561.868 169.799 561.677 168.524 561.846 166.564 C 562.015 164.604 561.747 163.000 561.250 163.000 C 560.753 163.000 560.551 161.538 560.801 159.750 C 561.051 157.963 560.929 156.806 560.531 157.180 C 560.132 157.554 559.691 155.754 559.549 153.180 C 559.114 145.266 555.814 129.997 554.689 130.692 C 554.078 131.070 553.901 130.700 554.254 129.782 C 555.001 127.835 553.039 119.858 551.975 120.515 C 551.541 120.783 551.422 120.102 551.710 119.001 C 551.998 117.901 551.773 117.000 551.210 117.000 C 550.648 117.000 550.437 115.988 550.741 114.750 C 551.059 113.459 550.916 112.852 550.405 113.326 C 549.916 113.780 549.468 113.555 549.410 112.826 C 549.352 112.097 549.236 110.461 549.152 109.191 C 549.069 107.921 548.555 107.157 548.011 107.493 C 547.445 107.843 547.277 107.442 547.618 106.552 C 547.947 105.696 547.691 105.000 547.048 105.000 C 546.407 105.000 546.131 104.597 546.435 104.105 C 546.739 103.613 545.887 100.351 544.543 96.855 C 543.198 93.360 542.038 90.950 541.966 91.500 C 541.893 92.050 541.723 91.600 541.588 90.500 C 541.120 86.684 538.632 81.110 537.664 81.708 C 537.129 82.038 536.984 81.835 537.342 81.256 C 537.700 80.676 537.104 78.244 536.018 75.851 C 534.932 73.458 533.981 71.725 533.904 72.000 C 533.826 72.275 533.827 72.130 533.906 71.677 C 534.092 70.604 524.864 55.086 524.091 55.171 C 523.766 55.207 523.640 55.184 523.812 55.118 C 523.984 55.053 522.634 52.924 520.812 50.386 C 514.986 42.271 499.077 28.332 494.836 27.626 C 494.101 27.504 492.375 26.785 491.000 26.029 C 488.672 24.749 463.925 23.408 462.830 24.503 M 482.598 52.227 C 485.738 53.657 495.019 63.148 499.829 69.846 C 501.667 72.406 504.765 77.650 506.713 81.500 C 508.661 85.350 510.535 88.725 510.877 89.000 C 511.220 89.275 511.574 90.175 511.664 91.000 C 512.007 94.141 515.702 102.964 516.388 102.279 C 516.783 101.884 516.809 102.335 516.446 103.280 C 516.083 104.226 516.234 105.000 516.782 105.000 C 517.330 105.000 517.729 105.563 517.669 106.250 C 517.484 108.366 520.263 116.000 521.217 116.000 C 521.713 116.000 521.873 116.397 521.573 116.883 C 521.272 117.368 521.921 120.364 523.013 123.539 C 524.106 126.715 525.000 130.218 525.000 131.323 C 525.000 132.429 525.334 132.999 525.742 132.591 C 526.509 131.825 526.590 132.209 526.848 137.809 C 526.950 140.030 527.380 140.883 528.155 140.405 C 528.863 139.967 529.038 140.130 528.607 140.827 C 527.936 141.913 529.432 152.862 530.680 156.000 C 531.008 156.825 531.176 159.013 531.052 160.862 C 530.917 162.883 531.224 163.980 531.820 163.611 C 532.405 163.249 532.600 163.814 532.294 164.984 C 532.008 166.076 532.115 167.764 532.531 168.735 C 532.947 169.706 533.189 171.738 533.068 173.250 C 532.948 174.763 533.319 176.000 533.893 176.000 C 534.467 176.000 534.678 176.675 534.362 177.500 C 534.045 178.325 534.098 179.788 534.480 180.750 C 534.862 181.713 535.295 184.575 535.442 187.111 C 535.589 189.647 536.064 192.294 536.496 192.994 C 536.929 193.694 537.373 195.894 537.483 197.883 C 537.858 204.667 539.288 214.045 539.861 213.473 C 540.175 213.159 540.301 214.712 540.141 216.925 C 539.981 219.139 540.182 221.485 540.586 222.139 C 540.991 222.794 541.266 226.293 541.199 229.915 C 541.131 233.537 541.346 235.863 541.676 235.085 C 542.247 233.740 542.722 241.780 542.910 256.000 C 542.958 259.575 543.458 266.325 544.021 271.000 C 544.584 275.675 545.008 282.639 544.963 286.476 C 544.918 290.313 545.185 293.148 545.556 292.777 C 546.228 292.105 546.796 298.991 546.851 308.476 C 546.867 311.213 547.219 313.115 547.632 312.701 C 548.046 312.288 548.435 313.198 548.497 314.725 C 548.559 316.251 548.698 319.937 548.805 322.917 C 548.912 325.896 549.257 328.076 549.571 327.762 C 549.885 327.448 550.344 330.861 550.590 335.345 C 550.837 339.830 551.480 345.945 552.019 348.934 C 552.559 351.922 553.000 356.610 553.000 359.350 C 553.000 362.091 553.322 364.011 553.716 363.617 C 554.110 363.224 554.300 364.724 554.139 366.951 C 553.979 369.178 554.219 371.000 554.674 371.000 C 555.128 371.000 555.559 372.238 555.631 373.750 C 555.703 375.263 556.008 379.650 556.309 383.500 C 556.611 387.350 556.862 392.965 556.868 395.977 C 556.874 398.990 557.198 401.135 557.589 400.744 C 557.980 400.353 558.359 402.164 558.432 404.767 C 558.504 407.370 558.662 413.288 558.782 417.917 C 558.902 422.546 559.301 426.032 559.669 425.664 C 560.285 425.049 559.348 490.975 558.652 497.257 C 558.484 498.773 558.044 499.710 557.673 499.340 C 557.303 498.970 556.923 500.204 556.829 502.083 C 556.568 507.289 556.388 508.264 555.105 511.422 C 554.453 513.030 554.157 514.966 554.448 515.724 C 554.739 516.483 554.532 516.829 553.989 516.493 C 553.445 516.157 553.000 516.539 553.000 517.341 C 553.000 518.143 551.431 524.523 549.514 531.518 C 547.597 538.514 546.274 544.634 546.573 545.119 C 546.873 545.603 546.604 546.000 545.976 546.000 C 545.347 546.000 545.019 546.558 545.247 547.241 C 545.475 547.924 545.036 549.107 544.273 549.870 C 543.510 550.633 543.122 551.875 543.411 552.629 C 543.700 553.383 543.532 554.000 543.036 554.000 C 542.540 554.000 541.824 555.013 541.443 556.250 C 539.828 561.506 532.608 574.758 529.677 577.851 C 524.124 583.708 505.311 595.000 501.107 595.000 C 500.498 595.000 500.000 595.375 500.000 595.833 C 500.000 596.292 499.334 596.667 498.520 596.667 C 496.883 596.667 489.074 599.009 487.500 599.972 C 485.906 600.947 478.858 601.087 418.000 601.348 C 362.264 601.587 348.794 602.096 346.440 604.050 C 345.822 604.563 345.096 604.763 344.828 604.495 C 344.326 603.992 334.284 606.717 332.500 607.840 C 331.950 608.186 331.275 608.487 331.000 608.509 C 329.003 608.666 321.000 611.389 321.000 611.912 C 321.000 612.270 319.788 612.664 318.306 612.787 C 316.824 612.909 315.362 613.345 315.056 613.755 C 314.750 614.165 313.600 614.658 312.500 614.850 C 311.400 615.043 309.600 615.702 308.500 616.315 C 307.400 616.928 306.275 617.470 306.000 617.521 C 301.945 618.266 299.000 619.343 299.000 620.079 C 299.000 620.586 298.663 620.909 298.250 620.798 C 297.005 620.462 287.000 623.329 287.000 624.022 C 287.000 624.377 286.438 624.706 285.750 624.753 C 285.063 624.801 283.375 625.093 282.000 625.403 C 280.625 625.713 278.150 626.252 276.500 626.601 C 274.850 626.950 273.069 627.492 272.542 627.805 C 272.016 628.118 270.490 628.491 269.152 628.634 C 267.815 628.777 265.996 629.205 265.110 629.586 C 264.225 629.966 262.825 630.379 262.000 630.502 C 259.150 630.928 229.495 637.253 228.000 637.754 C 225.012 638.756 220.818 638.897 178.805 639.407 C 141.996 639.854 135.379 639.710 130.805 638.364 C 127.887 637.506 125.084 636.735 124.575 636.652 C 123.169 636.421 118.622 631.080 115.127 625.554 C 113.407 622.834 111.966 621.034 111.923 621.554 C 111.881 622.074 111.682 621.825 111.480 621.000 C 111.006 619.064 100.115 598.340 99.918 599.000 C 99.753 599.553 99.387 598.211 99.152 596.191 C 99.069 595.471 98.555 595.157 98.011 595.493 C 97.456 595.836 97.271 595.458 97.589 594.629 C 97.900 593.818 97.257 592.257 96.161 591.161 C 95.064 590.064 94.362 588.971 94.601 588.732 C 94.840 588.493 94.355 586.993 93.524 585.399 C 92.693 583.804 91.958 582.725 91.891 583.000 C 91.753 583.566 91.380 582.146 91.152 580.191 C 91.068 579.470 90.481 579.203 89.845 579.595 C 89.160 580.019 88.961 579.872 89.357 579.232 C 89.723 578.640 87.317 572.658 84.011 565.941 C 80.705 559.223 77.944 554.013 77.875 554.363 C 77.718 555.164 77.290 553.497 77.125 551.441 C 77.052 550.531 76.519 550.179 75.845 550.595 C 75.170 551.013 74.961 550.872 75.342 550.256 C 75.700 549.676 75.104 547.244 74.018 544.851 C 72.932 542.458 71.982 540.725 71.907 541.000 C 71.727 541.653 71.345 539.974 71.152 537.691 C 71.060 536.598 70.543 536.164 69.845 536.595 C 69.170 537.013 68.961 536.872 69.341 536.257 C 69.970 535.239 67.918 527.124 65.737 522.000 C 65.152 520.625 64.785 518.437 64.923 517.138 C 65.079 515.662 64.769 515.025 64.098 515.440 C 63.434 515.850 63.251 515.510 63.618 514.552 C 63.946 513.698 63.893 512.213 63.500 511.250 C 63.108 510.288 62.676 507.925 62.539 506.000 C 62.035 498.861 60.694 488.973 60.285 489.382 C 60.053 489.614 59.674 486.608 59.443 482.704 C 59.212 478.799 58.568 472.993 58.011 469.802 C 56.468 460.950 55.259 453.367 53.862 443.787 C 53.164 438.995 52.355 435.311 52.066 435.601 C 51.776 435.891 51.677 434.524 51.846 432.564 C 52.015 430.604 51.769 429.000 51.300 429.000 C 50.831 429.000 50.623 427.088 50.837 424.750 C 51.052 422.413 50.902 420.812 50.504 421.193 C 49.478 422.176 49.418 418.784 48.833 326.000 C 48.543 280.075 48.670 241.213 49.115 239.640 C 49.559 238.068 50.152 231.859 50.431 225.844 C 50.711 219.829 51.134 214.591 51.372 214.204 C 51.610 213.817 51.961 207.316 52.153 199.757 C 52.344 192.199 52.787 186.011 53.138 186.007 C 54.166 185.996 56.283 166.284 55.581 163.261 C 55.172 161.504 55.263 160.985 55.830 161.833 C 56.709 163.149 57.931 157.614 58.331 150.500 C 58.424 148.850 58.818 147.260 59.207 146.967 C 60.315 146.133 62.232 132.184 61.419 130.869 C 60.945 130.102 61.123 129.958 61.930 130.457 C 62.850 131.025 63.097 130.220 62.888 127.333 C 62.734 125.194 63.019 122.782 63.523 121.972 C 64.920 119.725 65.325 78.477 63.975 75.954 C 62.549 73.288 63.555 72.046 71.460 66.720 C 74.782 64.482 77.775 62.240 78.112 61.740 C 78.448 61.239 79.024 60.907 79.392 61.002 C 79.760 61.097 81.510 60.623 83.280 59.949 C 85.051 59.275 86.950 58.629 87.500 58.514 C 88.050 58.399 88.725 58.204 89.000 58.081 C 92.519 56.507 129.371 56.074 143.500 57.440 C 147.350 57.812 153.650 58.298 157.500 58.520 C 169.958 59.239 179.230 60.024 179.872 60.415 C 180.218 60.626 185.000 61.125 190.500 61.525 C 196.000 61.924 201.850 62.394 203.500 62.569 C 214.153 63.696 217.177 64.063 222.928 64.930 C 226.463 65.462 229.694 65.689 230.109 65.433 C 230.523 65.177 231.158 65.446 231.519 66.032 C 231.881 66.617 232.925 66.997 233.839 66.877 C 234.752 66.756 237.300 67.161 239.500 67.777 C 241.700 68.392 245.389 69.103 247.697 69.356 C 250.005 69.609 252.305 70.070 252.808 70.381 C 255.797 72.229 322.570 73.234 340.000 71.693 C 344.675 71.280 349.175 70.898 350.000 70.843 C 351.257 70.760 357.632 69.549 379.000 65.331 C 380.375 65.060 382.175 64.589 383.000 64.285 C 383.825 63.981 386.075 63.557 388.000 63.343 C 389.925 63.129 392.175 62.698 393.000 62.386 C 393.825 62.073 396.300 61.627 398.500 61.393 C 400.700 61.160 403.625 60.677 405.000 60.320 C 406.375 59.964 407.782 59.727 408.127 59.795 C 408.472 59.863 411.172 59.489 414.127 58.964 C 417.082 58.439 421.075 57.773 423.000 57.484 C 424.925 57.195 427.625 56.776 429.000 56.552 C 430.375 56.329 434.186 55.851 437.468 55.491 C 440.751 55.131 444.179 54.439 445.087 53.954 C 445.994 53.468 446.909 53.234 447.119 53.433 C 447.328 53.632 451.775 53.214 457.000 52.504 C 469.454 50.811 479.257 50.704 482.598 52.227 "/></g>
<g fill="#317157FF" stroke="#317157FF">
<path d="M 317.490 418.976 C 312.142 419.774 302.000 424.383 302.000 426.017 C 302.000 426.558 301.524 427.000 300.941 427.000 C 299.411 427.000 291.891 433.224 292.584 433.917 C 292.904 434.238 292.686 434.500 292.098 434.500 C 291.511 434.500 289.223 436.686 287.015 439.359 C 284.807 442.031 282.993 443.831 282.985 443.359 C 282.976 442.886 282.586 443.105 282.117 443.844 C 280.927 445.722 276.154 443.151 270.341 437.501 C 267.876 435.105 265.553 433.112 265.180 433.073 C 264.806 433.033 264.500 432.487 264.500 431.859 C 264.500 431.231 263.600 430.219 262.500 429.609 C 261.400 428.999 260.140 427.937 259.700 427.250 C 258.270 425.014 252.782 422.787 247.455 422.282 C 241.867 421.751 231.000 424.264 231.000 426.087 C 231.000 426.654 230.550 426.840 230.000 426.500 C 229.450 426.160 229.000 426.385 229.000 427.000 C 229.000 427.615 228.607 427.875 228.126 427.578 C 227.645 427.281 226.098 428.107 224.688 429.414 C 223.277 430.721 221.959 431.626 221.758 431.425 C 221.557 431.223 219.279 432.999 216.696 435.370 C 214.113 437.742 212.000 439.436 212.000 439.135 C 212.000 438.835 210.180 440.540 207.956 442.925 C 205.733 445.310 204.045 446.782 204.206 446.196 C 204.368 445.610 201.719 447.689 198.320 450.815 C 194.921 453.942 191.621 456.500 190.987 456.500 C 190.352 456.500 190.134 456.199 190.502 455.831 C 190.870 455.463 190.143 454.563 188.886 453.831 C 187.629 453.099 187.109 452.602 187.729 452.726 C 188.349 452.851 187.770 451.051 186.441 448.726 C 185.111 446.402 183.984 444.950 183.936 445.500 C 183.887 446.050 183.701 445.746 183.523 444.825 C 182.950 441.860 176.925 433.928 175.783 434.634 C 175.171 435.012 174.974 434.851 175.334 434.268 C 175.688 433.695 175.222 432.613 174.297 431.863 C 172.851 430.691 172.736 430.710 173.472 432.000 C 173.942 432.825 173.179 432.293 171.775 430.818 C 170.371 429.344 167.466 427.664 165.318 427.086 C 159.702 425.573 142.053 426.305 140.918 428.098 C 140.430 428.869 140.024 429.156 140.015 428.737 C 139.974 426.690 121.597 436.784 115.279 442.324 C 105.651 450.766 103.601 457.722 109.142 463.139 C 112.178 466.106 112.519 466.193 119.175 465.683 C 125.288 465.215 127.109 464.533 135.317 459.635 C 145.770 453.398 149.104 451.896 153.737 451.337 C 157.470 450.887 159.028 452.320 163.030 459.886 C 169.956 472.981 176.426 480.636 181.175 481.356 C 181.904 481.466 182.950 481.812 183.500 482.126 C 187.110 484.181 203.000 482.337 203.000 479.863 C 203.000 479.324 203.450 479.160 204.000 479.500 C 204.550 479.840 205.000 479.615 205.000 479.000 C 205.000 478.385 205.395 478.126 205.878 478.425 C 206.362 478.723 208.837 477.031 211.378 474.664 C 213.920 472.297 216.000 470.510 216.000 470.693 C 216.000 470.875 221.216 466.573 227.592 461.132 C 244.335 446.843 242.231 447.165 252.223 457.362 C 263.425 468.793 269.685 471.610 283.278 471.336 C 289.216 471.216 295.000 469.481 295.000 467.820 C 295.000 467.304 295.371 467.111 295.824 467.391 C 296.977 468.104 307.142 459.038 306.448 457.916 C 306.137 457.412 306.471 456.960 307.191 456.911 C 307.911 456.862 310.750 454.202 313.500 451.000 C 319.587 443.912 321.892 443.475 325.464 448.732 C 326.859 450.785 328.034 452.022 328.077 451.482 C 328.119 450.942 328.300 451.260 328.479 452.189 C 328.926 454.506 333.726 460.659 335.802 461.577 C 336.990 462.102 337.080 462.353 336.102 462.414 C 334.257 462.528 342.340 469.793 345.802 471.133 C 351.008 473.148 352.553 473.416 359.000 473.422 C 364.268 473.427 366.487 472.887 370.707 470.578 C 373.571 469.011 376.935 466.778 378.183 465.615 C 379.432 464.452 380.562 463.725 380.694 464.000 C 380.827 464.275 381.737 463.818 382.718 462.985 C 383.698 462.152 386.413 460.843 388.750 460.075 C 391.088 459.308 393.000 458.275 393.000 457.781 C 393.000 457.286 393.370 457.110 393.822 457.390 C 394.274 457.669 395.849 457.272 397.322 456.508 C 398.795 455.744 400.000 455.274 400.000 455.464 C 400.000 455.655 402.578 455.137 405.730 454.314 C 416.957 451.382 430.738 451.087 442.500 453.527 C 446.900 454.440 451.400 455.310 452.500 455.461 C 453.600 455.612 455.264 456.059 456.198 456.455 C 457.746 457.110 474.086 457.576 478.250 457.083 C 479.213 456.969 480.000 456.427 480.000 455.879 C 480.000 455.331 480.414 455.138 480.919 455.450 C 481.425 455.763 482.518 455.339 483.348 454.509 C 484.178 453.679 485.157 453.000 485.524 453.000 C 487.194 453.000 491.953 448.732 491.357 447.769 C 490.986 447.169 491.154 446.977 491.736 447.337 C 492.628 447.888 496.443 443.463 496.338 442.000 C 496.318 441.725 496.939 441.034 497.717 440.465 C 500.019 438.782 500.463 431.779 498.527 427.698 C 496.338 423.086 493.003 420.956 486.948 420.305 C 481.706 419.742 476.881 421.863 473.266 426.321 C 471.166 428.912 467.191 428.939 456.500 426.436 C 448.877 424.651 428.769 424.042 418.169 425.276 C 411.348 426.070 398.131 428.856 396.500 429.844 C 395.950 430.177 394.505 430.586 393.289 430.754 C 389.401 431.289 371.775 438.010 365.026 441.531 C 361.437 443.404 357.600 444.760 356.500 444.544 C 355.400 444.329 354.854 444.119 355.286 444.077 C 356.260 443.982 347.563 433.307 340.779 426.272 C 338.007 423.396 335.347 421.285 334.869 421.581 C 334.391 421.876 334.000 421.615 334.000 421.000 C 334.000 420.385 333.588 420.136 333.085 420.447 C 332.582 420.758 332.020 420.621 331.835 420.143 C 331.321 418.810 323.090 418.141 317.490 418.976 "/></g>
<g fill="#317157FF" stroke="#317157FF">
<path d="M 323.809 523.524 C 323.482 523.851 321.738 524.305 319.932 524.534 C 318.127 524.762 316.285 525.523 315.840 526.225 C 315.395 526.926 315.024 527.151 315.015 526.724 C 314.993 525.587 309.000 528.876 309.000 530.026 C 309.000 530.562 308.615 530.888 308.143 530.750 C 306.982 530.411 298.000 536.886 298.000 538.062 C 298.000 538.578 297.448 539.000 296.774 539.000 C 296.099 539.000 292.340 542.186 288.420 546.080 C 282.153 552.304 280.820 553.175 277.383 553.285 C 275.233 553.355 272.918 553.067 272.237 552.647 C 271.557 552.226 271.000 552.129 271.000 552.431 C 271.000 552.733 270.213 552.338 269.250 551.552 C 260.942 544.770 256.038 541.000 255.526 541.000 C 255.191 541.000 253.969 540.118 252.812 539.039 C 250.351 536.747 243.621 535.520 238.266 536.387 C 236.194 536.723 233.938 537.073 233.250 537.165 C 232.563 537.258 232.000 537.735 232.000 538.226 C 232.000 538.716 231.550 538.840 231.000 538.500 C 230.450 538.160 230.000 538.385 230.000 539.000 C 230.000 539.615 229.565 539.849 229.033 539.520 C 228.501 539.191 227.492 539.840 226.792 540.961 C 226.092 542.083 225.040 543.000 224.456 543.000 C 222.931 543.000 217.000 549.336 217.000 550.964 C 217.000 551.717 216.748 552.081 216.440 551.773 C 216.132 551.466 213.770 553.484 211.190 556.258 C 204.495 563.459 197.209 569.000 194.436 569.000 C 191.998 569.000 189.000 564.858 189.000 561.491 C 189.000 560.606 188.555 560.157 188.011 560.493 C 187.445 560.843 187.277 560.442 187.618 559.552 C 187.947 558.696 187.691 558.000 187.048 558.000 C 186.407 558.000 186.129 557.600 186.432 557.111 C 187.105 556.022 183.131 545.885 181.488 544.500 C 180.835 543.950 180.176 543.050 180.023 542.500 C 179.284 539.842 178.716 539.058 177.895 539.565 C 177.403 539.869 177.000 539.485 177.000 538.711 C 177.000 536.955 170.511 533.965 166.500 533.873 C 160.577 533.736 152.000 536.249 152.000 538.121 C 152.000 538.605 151.524 539.000 150.941 539.000 C 149.096 539.000 142.032 545.243 142.684 546.298 C 143.028 546.854 142.840 547.019 142.268 546.666 C 141.695 546.312 140.671 546.692 139.991 547.511 C 139.311 548.330 139.043 549.000 139.396 549.000 C 139.748 549.000 138.566 550.472 136.768 552.270 C 130.092 558.952 122.482 570.352 123.547 572.077 C 123.861 572.585 123.641 573.000 123.059 573.000 C 122.467 573.000 122.000 575.029 122.000 577.600 C 122.000 581.498 122.519 582.719 125.400 585.600 C 131.436 591.636 136.576 589.893 146.543 578.430 C 149.819 574.662 154.832 569.090 157.683 566.048 L 162.866 560.517 163.933 563.324 C 164.520 564.867 165.000 567.252 165.000 568.624 C 165.000 569.996 165.408 570.866 165.907 570.558 C 166.405 570.249 166.578 570.898 166.290 571.999 C 165.986 573.162 166.259 574.000 166.942 574.000 C 167.589 574.000 167.825 574.474 167.467 575.054 C 166.492 576.631 171.777 586.391 175.626 590.122 C 177.482 591.921 179.000 593.069 179.000 592.673 C 179.000 592.278 180.218 592.752 181.707 593.727 C 183.800 595.099 186.418 595.490 193.272 595.454 C 198.144 595.428 202.438 594.978 202.815 594.454 C 203.192 593.929 204.351 593.353 205.390 593.174 C 208.819 592.582 215.387 587.802 223.250 580.172 C 227.513 576.037 231.000 571.981 231.000 571.160 C 231.000 570.339 231.267 569.934 231.594 570.261 C 231.921 570.588 233.543 569.313 235.198 567.428 C 236.853 565.542 237.936 563.944 237.604 563.875 C 237.272 563.806 237.338 563.687 237.750 563.610 C 238.163 563.533 239.040 563.126 239.700 562.707 C 240.430 562.242 241.330 562.748 242.000 564.000 C 242.605 565.131 243.597 565.749 244.205 565.373 C 244.829 564.988 245.029 565.144 244.664 565.734 C 244.104 566.640 249.209 571.426 251.226 571.886 C 251.626 571.977 253.084 573.100 254.467 574.382 C 258.324 577.957 268.849 581.000 277.354 581.000 C 281.376 581.000 284.978 580.688 285.359 580.308 C 285.740 579.927 287.052 579.464 288.276 579.279 C 289.499 579.094 290.651 578.502 290.835 577.965 C 291.020 577.427 291.582 577.242 292.085 577.553 C 292.588 577.864 293.000 577.615 293.000 577.000 C 293.000 576.385 293.427 576.146 293.950 576.469 C 294.472 576.792 295.469 576.031 296.164 574.778 C 296.860 573.525 297.445 573.078 297.465 573.785 C 297.484 574.491 299.960 572.579 302.966 569.535 C 305.972 566.491 308.222 563.947 307.966 563.882 C 307.710 563.816 307.771 563.794 308.102 563.832 C 308.433 563.870 310.821 561.448 313.410 558.451 C 315.998 555.453 318.674 553.000 319.357 553.000 C 320.040 553.000 321.170 554.582 321.869 556.516 C 322.619 558.589 323.585 559.756 324.225 559.361 C 324.896 558.946 325.019 559.161 324.546 559.925 C 324.061 560.711 325.621 562.930 328.846 566.038 C 335.018 571.987 341.240 574.063 351.500 573.594 C 358.560 573.271 375.377 568.817 376.521 566.966 C 376.860 566.417 377.557 566.226 378.069 566.543 C 378.581 566.859 379.000 566.641 379.000 566.059 C 379.000 565.477 379.338 565.091 379.750 565.203 C 380.860 565.503 388.000 562.702 388.000 561.966 C 388.000 561.618 388.563 561.287 389.250 561.230 C 389.938 561.173 393.200 560.179 396.500 559.021 C 404.219 556.313 411.708 556.238 420.635 558.778 C 424.684 559.931 431.388 560.902 436.135 561.025 C 446.299 561.287 449.737 561.559 453.000 562.363 C 456.463 563.216 465.176 564.198 473.500 564.674 C 479.254 565.002 481.080 564.713 483.759 563.046 C 488.074 560.361 490.992 555.384 490.996 550.700 C 491.004 542.501 485.373 537.022 476.154 536.260 C 469.779 535.733 466.291 535.321 460.500 534.409 C 454.787 533.509 450.075 533.205 436.750 532.873 C 430.288 532.713 425.000 532.253 425.000 531.853 C 425.000 530.808 423.140 530.685 407.500 530.701 C 398.272 530.710 392.477 531.157 390.500 532.011 C 388.850 532.724 386.915 533.427 386.201 533.572 C 385.486 533.718 381.097 535.671 376.447 537.911 C 371.797 540.152 367.778 542.018 367.515 542.057 C 367.252 542.097 365.566 542.566 363.768 543.101 C 361.971 543.635 357.931 544.687 354.790 545.438 C 349.237 546.766 349.009 546.738 346.489 544.402 C 345.063 543.081 344.154 542.000 344.469 542.000 C 345.248 542.000 341.226 534.225 338.633 530.717 C 335.274 526.174 325.771 521.563 323.809 523.524 "/></g>
<g fill="#317157FF" stroke="#317157FF">
<path d="M 148.556 278.910 C 148.174 279.528 147.503 279.811 147.065 279.540 C 146.626 279.269 145.462 279.937 144.479 281.024 C 143.495 282.111 143.017 283.000 143.416 283.000 C 143.816 283.000 143.411 283.732 142.516 284.626 C 141.622 285.521 141.013 287.208 141.164 288.376 C 141.315 289.544 141.111 291.026 140.711 291.668 C 139.612 293.432 136.854 310.178 137.419 311.650 C 137.691 312.357 137.440 313.228 136.862 313.585 C 136.284 313.942 136.017 315.307 136.267 316.617 C 136.518 317.928 136.301 319.000 135.786 319.000 C 135.271 319.000 134.948 320.238 135.068 321.750 C 135.189 323.263 134.949 325.288 134.537 326.250 C 134.124 327.213 134.054 328.698 134.382 329.552 C 134.723 330.442 134.555 330.843 133.989 330.493 C 133.439 330.153 133.000 330.982 133.000 332.362 C 133.000 333.725 131.855 341.514 130.456 349.671 C 127.823 365.019 127.857 372.624 130.564 373.663 C 131.348 373.964 131.763 374.574 131.488 375.019 C 130.717 376.267 137.498 380.058 140.673 380.154 C 145.117 380.287 149.386 379.064 150.750 377.266 C 151.438 376.359 152.003 376.041 152.007 376.559 C 152.010 377.076 152.910 376.150 154.006 374.500 C 155.101 372.850 155.779 370.914 155.510 370.198 C 155.220 369.423 155.477 369.177 156.146 369.590 C 156.917 370.067 157.124 369.301 156.808 367.142 C 156.554 365.414 156.777 364.000 157.304 364.000 C 157.841 364.000 158.011 362.453 157.690 360.478 C 157.351 358.388 157.501 357.192 158.059 357.537 C 158.911 358.063 159.146 356.461 159.503 347.725 C 159.565 346.198 159.968 345.298 160.399 345.725 C 160.829 346.151 161.081 344.700 160.957 342.500 C 160.834 340.300 160.983 337.825 161.289 337.000 C 161.595 336.175 162.235 333.700 162.711 331.500 L 163.576 327.500 169.477 338.500 C 172.722 344.550 175.965 350.625 176.683 352.000 C 177.400 353.375 178.047 354.163 178.119 353.750 C 178.272 352.876 178.695 354.371 178.875 356.423 C 178.944 357.206 180.402 359.248 182.115 360.962 C 183.829 362.675 184.719 363.947 184.093 363.788 C 183.467 363.630 184.090 364.591 185.478 365.924 C 186.865 367.258 188.000 368.013 188.000 367.603 C 188.000 367.193 188.695 367.552 189.545 368.402 C 193.414 372.271 201.798 372.328 207.602 368.525 C 210.317 366.746 213.366 361.401 212.482 359.971 C 212.152 359.437 212.411 359.000 213.058 359.000 C 213.768 359.000 214.047 358.024 213.761 356.530 C 213.501 355.172 213.674 354.298 214.144 354.589 C 214.615 354.880 215.091 353.404 215.203 351.309 C 215.568 344.439 215.825 341.492 216.013 342.000 C 216.372 342.970 218.916 325.414 219.370 318.832 C 219.623 315.164 220.049 312.382 220.316 312.650 C 221.133 313.466 222.286 294.147 221.653 290.249 C 221.305 288.104 219.829 285.367 218.074 283.612 C 215.486 281.024 214.355 280.625 209.619 280.625 C 204.718 280.625 203.797 280.981 200.735 284.063 C 197.767 287.050 197.158 288.548 196.087 295.500 C 195.410 299.900 194.702 306.052 194.515 309.171 C 194.328 312.290 193.911 314.577 193.588 314.254 C 193.264 313.931 193.000 314.840 193.000 316.274 C 193.000 317.709 192.480 319.203 191.845 319.595 C 191.144 320.029 190.962 319.871 191.382 319.191 C 191.762 318.576 191.269 317.232 190.286 316.203 C 189.304 315.175 188.398 313.841 188.274 313.240 C 187.549 309.726 171.939 288.703 169.811 288.375 C 169.365 288.306 169.303 288.194 169.674 288.125 C 170.599 287.954 166.122 283.250 162.705 280.802 C 159.467 278.482 149.633 277.167 148.556 278.910 "/></g>
<g fill="#317157FF" stroke="#317157FF">
<path d="M 146.916 97.417 C 146.601 97.733 144.221 98.206 141.627 98.468 C 136.304 99.007 128.000 102.343 128.000 103.944 C 128.000 104.525 127.408 105.000 126.684 105.000 C 125.960 105.000 124.277 106.913 122.943 109.250 C 120.873 112.876 120.529 114.749 120.597 122.000 C 120.770 140.499 121.151 149.434 121.707 148.066 C 122.295 146.619 122.813 155.716 122.862 168.343 C 122.882 173.438 123.198 174.996 124.099 174.439 C 124.882 173.955 125.049 174.112 124.573 174.882 C 123.736 176.236 124.959 198.374 125.823 197.510 C 126.131 197.202 126.435 198.198 126.497 199.725 C 126.810 207.394 127.056 209.277 127.665 208.668 C 128.031 208.302 128.451 209.127 128.597 210.501 C 128.915 213.478 132.799 219.242 133.991 218.506 C 134.452 218.221 135.001 218.502 135.210 219.130 C 135.928 221.285 143.873 220.468 146.536 217.966 C 147.887 216.697 148.790 215.457 148.544 215.210 C 148.297 214.964 148.749 214.108 149.548 213.310 C 150.678 212.180 150.997 208.820 150.985 198.179 C 150.973 188.128 150.683 184.898 149.890 186.000 C 148.993 187.248 148.911 187.192 149.406 185.668 C 149.733 184.661 150.000 182.298 150.000 180.418 L 150.000 177.000 157.057 177.000 C 166.656 177.000 172.472 175.369 176.253 171.617 C 177.980 169.903 178.994 169.175 178.505 170.000 C 177.740 171.291 177.851 171.310 179.297 170.137 C 180.222 169.387 180.731 168.374 180.430 167.887 C 180.129 167.399 180.365 167.000 180.956 167.000 C 182.467 167.000 186.106 160.771 185.513 159.198 C 185.214 158.403 185.474 158.175 186.181 158.612 C 186.946 159.084 187.131 158.784 186.726 157.729 C 186.389 156.849 186.528 155.988 187.037 155.815 C 189.108 155.110 191.042 136.762 189.167 135.603 C 188.708 135.320 188.544 133.654 188.801 131.902 C 189.123 129.709 188.919 128.932 188.146 129.410 C 187.429 129.853 187.238 129.543 187.618 128.552 C 187.947 127.696 187.691 127.000 187.048 127.000 C 186.407 127.000 186.131 126.598 186.434 126.106 C 187.230 124.819 184.190 118.000 182.820 118.000 C 182.186 118.000 181.949 117.718 182.294 117.373 C 184.030 115.637 173.181 103.696 166.931 100.464 C 162.627 98.239 148.279 96.054 146.916 97.417 M 156.078 121.685 C 157.852 122.200 165.000 134.814 165.000 137.429 C 165.000 138.358 165.366 138.892 165.814 138.615 C 166.261 138.339 166.317 140.450 165.939 143.306 C 165.561 146.163 165.393 148.661 165.566 148.857 C 165.740 149.054 164.876 150.300 163.646 151.626 C 161.885 153.525 160.019 154.167 154.856 154.649 C 148.586 155.234 148.269 155.158 147.546 152.881 C 147.130 151.571 146.883 149.605 146.998 148.511 C 147.348 145.169 144.704 125.065 143.974 125.516 C 143.597 125.749 143.497 124.852 143.751 123.524 C 144.120 121.591 144.941 121.032 147.856 120.729 C 149.860 120.520 152.175 120.547 153.000 120.788 C 153.825 121.029 155.210 121.433 156.078 121.685 "/></g>
<g fill="#317157FF" stroke="#317157FF">
<path d="M 275.250 293.094 C 274.013 293.557 273.000 294.475 273.000 295.134 C 273.000 295.794 272.716 296.049 272.369 295.702 C 272.021 295.355 270.924 295.506 269.929 296.038 C 268.749 296.669 267.906 296.657 267.502 296.003 C 266.143 293.804 255.000 295.727 255.000 298.161 C 255.000 298.622 254.512 298.888 253.916 298.750 C 252.214 298.358 246.937 305.382 246.517 308.598 C 246.308 310.194 246.077 311.050 246.002 310.500 C 245.642 307.852 242.999 319.069 243.056 323.000 C 243.092 325.475 242.812 330.036 242.433 333.136 C 241.729 338.893 242.734 354.599 243.741 353.592 C 244.048 353.286 244.402 354.357 244.529 355.972 C 244.792 359.317 252.210 370.629 253.891 370.250 C 254.501 370.113 255.000 370.472 255.000 371.049 C 255.000 372.295 263.060 376.081 264.206 375.373 C 264.643 375.103 265.000 375.359 265.000 375.941 C 265.000 377.397 279.215 377.315 282.453 375.839 C 283.854 375.201 285.000 374.275 285.000 373.780 C 285.000 373.286 285.452 373.161 286.004 373.502 C 287.266 374.282 298.371 363.772 301.632 358.713 C 302.974 356.630 303.761 354.423 303.382 353.808 C 302.985 353.166 303.140 352.969 303.748 353.344 C 304.877 354.042 307.325 348.334 306.482 346.971 C 306.210 346.531 306.547 345.984 307.230 345.757 C 308.010 345.497 308.547 343.048 308.672 339.180 C 308.781 335.791 309.139 332.584 309.468 332.053 C 310.313 330.684 308.892 317.949 307.958 318.526 C 307.534 318.788 307.422 318.102 307.710 317.001 C 307.998 315.901 307.745 315.000 307.148 315.000 C 306.547 315.000 306.347 314.258 306.701 313.336 C 307.165 312.128 306.977 311.896 306.015 312.490 C 305.137 313.033 304.930 312.922 305.400 312.162 C 305.789 311.532 305.648 310.225 305.085 309.258 C 304.521 308.291 303.991 307.838 303.905 308.250 C 303.755 308.974 303.384 307.954 303.125 306.108 C 302.883 304.381 293.801 295.005 292.906 295.558 C 292.408 295.866 292.000 295.615 292.000 295.000 C 292.000 294.385 291.588 294.136 291.085 294.447 C 290.582 294.758 290.009 294.526 289.810 293.931 C 289.362 292.586 278.306 291.950 275.250 293.094 M 279.185 317.169 C 281.212 317.296 282.648 317.760 282.376 318.200 C 282.104 318.640 282.344 319.000 282.910 319.000 C 283.475 319.000 283.650 319.749 283.299 320.664 C 282.910 321.677 283.062 322.080 283.688 321.693 C 284.388 321.260 284.416 322.709 283.778 326.220 C 283.262 329.059 283.038 332.418 283.280 333.685 C 283.522 334.951 283.108 336.495 282.360 337.116 C 281.612 337.737 281.000 338.833 281.000 339.551 C 281.000 341.191 274.659 348.000 273.132 348.000 C 272.509 348.000 272.000 347.325 272.000 346.500 C 272.000 345.675 271.663 345.001 271.250 345.002 C 270.462 345.004 270.712 319.460 271.521 317.181 C 271.781 316.452 272.775 316.103 273.745 316.400 C 274.710 316.696 277.158 317.042 279.185 317.169 "/></g>
<g fill="#317157FF" stroke="#317157FF">
<path d="M 245.500 145.984 C 244.400 146.448 241.806 146.583 239.735 146.284 C 237.388 145.945 234.306 146.375 231.549 147.428 C 226.748 149.262 219.508 156.395 220.621 158.195 C 221.003 158.813 220.860 159.032 220.301 158.686 C 219.126 157.960 216.700 162.706 217.546 164.075 C 217.861 164.584 217.593 165.000 216.952 165.000 C 216.311 165.000 216.045 165.675 216.362 166.500 C 216.678 167.325 216.449 168.000 215.852 168.000 C 215.255 168.000 215.002 168.900 215.289 169.999 C 215.577 171.098 215.374 172.269 214.838 172.600 C 214.302 172.931 213.998 174.760 214.163 176.665 C 214.327 178.569 214.132 179.799 213.730 179.397 C 213.329 178.995 213.036 180.654 213.079 183.083 C 213.122 185.513 213.416 186.845 213.731 186.045 C 214.046 185.245 214.385 187.045 214.485 190.045 C 214.608 193.749 215.549 197.228 217.417 200.883 C 220.439 206.795 228.730 216.285 230.122 215.425 C 230.605 215.126 231.000 215.321 231.000 215.858 C 231.000 217.445 239.192 220.103 244.543 220.252 C 253.232 220.495 263.000 217.670 263.000 214.915 C 263.000 214.347 263.414 214.138 263.920 214.451 C 264.426 214.763 265.728 213.890 266.814 212.510 C 267.900 211.129 269.201 210.000 269.706 210.000 C 270.760 210.000 280.404 198.591 280.161 197.633 C 280.072 197.285 280.935 196.065 282.077 194.923 C 283.220 193.780 283.900 192.182 283.589 191.371 C 283.271 190.542 283.456 190.164 284.011 190.507 C 284.555 190.843 285.069 190.079 285.152 188.809 C 285.236 187.539 285.352 185.903 285.410 185.174 C 285.468 184.445 285.802 184.135 286.152 184.486 C 286.503 184.836 287.098 182.465 287.475 179.216 C 288.191 173.046 286.735 165.000 284.902 165.000 C 284.341 165.000 284.153 164.561 284.485 164.025 C 285.201 162.865 277.118 153.809 275.989 154.507 C 275.560 154.772 274.959 154.336 274.654 153.539 C 274.042 151.947 266.009 147.490 265.985 148.730 C 265.976 149.153 265.639 149.011 265.235 148.414 C 263.277 145.520 250.368 143.931 245.500 145.984 M 259.194 172.268 C 261.708 173.741 264.038 175.657 264.371 176.525 C 264.721 177.436 264.559 177.845 263.989 177.493 C 263.445 177.157 263.000 177.748 263.000 178.806 C 263.000 179.864 262.100 181.874 261.000 183.273 C 259.900 184.671 259.000 186.247 259.000 186.775 C 259.000 188.138 251.013 193.383 247.837 194.106 C 245.476 194.643 244.970 194.260 243.377 190.728 C 242.227 188.176 241.662 184.824 241.805 181.400 C 242.122 173.822 243.389 171.000 246.475 171.000 C 247.864 171.000 249.000 170.595 249.000 170.100 C 249.000 168.396 254.630 169.593 259.194 172.268 "/></g>
<g fill="#317157FF" stroke="#317157FF">
<path d="M 408.250 286.220 C 407.013 286.817 406.000 287.713 406.000 288.212 C 406.000 288.710 405.650 288.902 405.222 288.637 C 403.180 287.375 392.192 301.884 393.540 304.065 C 393.858 304.579 393.593 305.000 392.952 305.000 C 392.309 305.000 392.053 305.696 392.382 306.552 C 392.723 307.442 392.555 307.843 391.989 307.493 C 391.082 306.933 390.837 308.156 390.522 314.790 C 390.463 316.050 390.116 316.782 389.752 316.418 C 389.388 316.054 389.132 321.898 389.185 329.405 C 389.237 336.912 389.515 342.818 389.803 342.530 C 390.091 342.242 390.476 343.364 390.657 345.024 C 391.570 353.364 402.012 366.401 411.500 371.048 C 415.546 373.029 417.937 373.477 424.029 373.398 C 431.782 373.298 439.000 371.594 439.000 369.863 C 439.000 369.324 439.401 369.130 439.891 369.432 C 441.129 370.198 444.241 365.199 443.387 363.817 C 442.962 363.130 443.141 362.969 443.845 363.405 C 444.624 363.886 445.000 363.102 445.000 361.000 C 445.000 359.200 444.582 358.140 444.011 358.493 C 443.468 358.829 443.259 358.490 443.547 357.739 C 444.226 355.969 440.481 352.592 437.678 352.446 C 434.399 352.276 430.815 350.960 427.750 348.801 C 426.238 347.735 425.000 347.135 425.000 347.467 C 425.000 347.798 423.590 346.464 421.867 344.501 C 420.144 342.539 418.922 340.745 419.152 340.515 C 419.382 340.285 422.029 339.857 425.035 339.565 C 437.341 338.369 450.191 331.467 453.994 324.011 C 456.326 319.440 457.956 310.291 456.251 311.345 C 455.591 311.753 455.374 311.287 455.679 310.118 C 456.545 306.807 450.380 297.000 447.433 297.000 C 446.762 297.000 445.944 296.296 445.614 295.437 C 445.284 294.577 444.561 294.153 444.007 294.496 C 443.453 294.838 443.000 294.649 443.000 294.076 C 443.000 293.173 434.365 288.177 432.257 287.859 C 431.279 287.712 430.243 287.414 426.101 286.088 C 421.807 284.714 411.212 284.792 408.250 286.220 M 426.185 306.880 C 427.458 307.364 428.900 307.776 429.388 307.795 C 431.201 307.865 432.850 312.000 431.065 312.000 C 430.551 312.000 428.863 312.503 427.315 313.118 C 425.767 313.733 422.755 314.412 420.623 314.628 C 416.748 315.019 416.746 315.018 417.379 311.855 C 418.498 306.259 420.933 304.884 426.185 306.880 "/></g>
<g fill="#317157FF" stroke="#317157FF">
<path d="M 331.641 135.692 C 331.260 136.073 330.036 136.524 328.921 136.694 C 322.941 137.607 314.537 145.292 312.910 151.335 C 312.320 153.526 312.115 156.934 312.456 158.909 C 312.929 161.656 312.816 162.147 311.976 161.000 C 310.445 158.907 311.726 165.455 313.667 169.640 C 315.040 172.600 326.000 183.980 326.000 182.445 C 326.000 182.052 327.013 182.973 328.250 184.492 C 329.488 186.011 330.371 186.697 330.213 186.017 C 330.056 185.336 331.518 186.467 333.463 188.530 C 335.408 190.592 337.000 192.619 337.000 193.035 C 337.000 193.450 335.425 193.434 333.500 193.000 C 331.575 192.566 329.944 192.388 329.875 192.605 C 329.806 192.822 329.694 192.451 329.625 191.780 C 329.331 188.912 319.007 186.561 317.490 189.016 C 317.144 189.575 316.477 189.795 316.007 189.505 C 314.518 188.584 311.000 194.673 311.000 198.172 C 311.000 201.593 315.170 209.000 317.095 209.000 C 317.658 209.000 317.880 209.385 317.590 209.855 C 317.299 210.325 318.173 211.753 319.531 213.029 C 320.889 214.305 322.000 215.013 322.000 214.603 C 322.000 214.193 322.707 214.564 323.571 215.429 C 324.436 216.293 325.673 217.057 326.321 217.128 C 326.970 217.198 328.625 217.485 330.000 217.765 C 345.482 220.923 361.558 212.217 363.751 199.487 C 364.737 193.762 364.319 188.000 362.918 188.000 C 362.448 188.000 362.313 187.347 362.620 186.548 C 363.695 183.747 357.560 174.769 349.276 167.018 C 344.724 162.760 341.000 158.994 341.000 158.651 C 341.000 157.380 348.554 154.922 350.759 155.476 C 356.192 156.839 359.514 150.467 354.750 147.821 C 353.513 147.133 353.071 146.555 353.768 146.535 C 356.068 146.471 348.736 138.785 344.571 136.893 C 340.537 135.061 332.975 134.359 331.641 135.692 "/></g>
<g fill="#317157FF" stroke="#317157FF">
<path d="M 345.000 278.652 C 340.740 280.055 338.891 281.700 336.964 285.799 C 335.799 288.277 335.047 291.072 335.292 292.010 C 335.538 292.948 335.347 294.415 334.869 295.270 C 334.372 296.158 334.386 297.825 334.902 299.162 C 335.672 301.156 335.219 302.046 331.819 305.211 C 329.627 307.252 328.122 309.389 328.476 309.961 C 328.829 310.532 328.641 311.000 328.059 311.000 C 326.482 311.000 326.779 317.673 328.506 321.011 C 329.334 322.612 332.010 325.094 334.454 326.526 C 338.470 328.879 338.957 329.580 339.523 333.815 C 339.868 336.392 340.401 339.175 340.708 340.000 C 341.016 340.825 341.169 343.238 341.049 345.361 C 340.917 347.707 341.220 348.982 341.822 348.610 C 342.405 348.250 342.599 348.816 342.294 349.984 C 342.008 351.076 342.119 352.764 342.541 353.735 C 342.962 354.706 343.208 356.301 343.086 357.279 C 342.716 360.253 344.914 365.571 347.529 368.027 C 348.888 369.304 350.000 370.013 350.000 369.603 C 350.000 369.193 350.707 369.564 351.571 370.429 C 353.827 372.684 361.726 372.464 365.710 370.035 C 369.325 367.831 373.000 361.448 373.000 357.373 C 373.000 355.885 372.694 354.972 372.321 355.346 C 371.947 355.719 371.589 354.557 371.524 352.762 C 371.203 343.915 370.942 341.725 370.284 342.383 C 369.890 342.776 369.696 341.322 369.853 339.151 C 370.010 336.980 369.717 334.943 369.203 334.626 C 367.399 333.511 369.209 328.873 371.881 327.764 C 373.321 327.166 374.838 326.750 375.250 326.839 C 375.663 326.927 376.000 326.523 376.000 325.941 C 376.000 325.359 376.381 325.118 376.847 325.405 C 378.088 326.173 383.336 320.353 382.550 319.081 C 382.183 318.487 382.359 318.000 382.941 318.000 C 384.802 318.000 384.076 310.859 381.848 307.253 C 379.183 302.942 374.255 300.785 367.845 301.125 C 365.152 301.268 363.214 301.120 363.539 300.795 C 364.569 299.765 362.852 292.973 361.736 293.663 C 361.139 294.032 360.988 293.829 361.383 293.189 C 362.267 291.759 358.908 285.164 355.847 282.317 C 353.671 280.292 348.773 277.896 347.185 278.079 C 346.808 278.122 345.825 278.380 345.000 278.652 "/></g>
<g fill="#317157FF" stroke="#317157FF">
<path d="M 397.931 120.916 C 396.074 122.612 394.912 124.000 395.349 124.000 C 395.785 124.000 395.402 124.741 394.497 125.646 C 393.076 127.067 392.947 128.789 393.559 138.224 L 394.267 149.155 390.634 152.150 C 387.621 154.634 387.000 155.793 387.000 158.938 C 387.000 162.874 390.364 168.511 392.080 167.451 C 392.586 167.138 393.000 167.359 393.000 167.941 C 393.000 168.523 393.645 169.000 394.433 169.000 C 396.275 169.000 397.067 171.596 397.465 178.936 C 397.641 182.185 398.157 185.440 398.611 186.171 C 399.066 186.902 399.312 188.481 399.157 189.680 C 398.723 193.039 403.757 202.691 407.235 205.168 C 409.417 206.721 411.794 207.385 415.178 207.385 C 422.456 207.385 426.747 203.558 428.507 195.500 C 429.033 193.089 428.931 192.794 427.987 194.000 C 426.995 195.265 426.909 195.200 427.437 193.587 C 428.094 191.577 427.056 179.611 426.291 180.376 C 426.047 180.620 425.706 178.215 425.534 175.032 C 425.258 169.939 425.429 169.299 426.963 169.701 C 429.441 170.349 436.323 168.325 438.686 166.254 C 441.785 163.537 443.000 160.536 443.000 155.601 C 443.000 151.940 442.568 150.831 440.750 149.821 C 439.513 149.133 439.110 148.555 439.855 148.535 C 440.807 148.511 440.657 148.000 439.353 146.820 C 436.468 144.208 432.718 143.129 425.748 142.903 C 419.602 142.704 419.354 142.598 419.784 140.348 C 420.049 138.961 419.752 138.000 419.058 138.000 C 418.411 138.000 418.171 137.533 418.524 136.962 C 419.458 135.450 416.826 125.990 415.669 126.704 C 415.113 127.048 415.011 126.792 415.432 126.111 C 416.309 124.691 413.304 119.694 412.041 120.474 C 411.563 120.770 411.000 120.501 410.792 119.876 C 410.584 119.252 408.365 118.536 405.861 118.286 C 401.848 117.886 400.907 118.198 397.931 120.916 "/></g>
</svg>
